STARTFONT 2.1
FONT -FontForge-Lucida Grande-Book-R-Normal--16-150-75-75-P-95-ISO10646-1
SIZE 15 75 75
FONTBOUNDINGBOX 17 20 -1 -3
COMMENT "Generated by fontforge, http://fontforge.sourceforge.net"
COMMENT "Copyright 1997 Bigelow & Holmes Inc. U.S. Pat. Des. 289,420. All rights reserved."
STARTPROPERTIES 40
FOUNDRY "FontForge"
FAMILY_NAME "Lucida Grande"
WEIGHT_NAME "Book"
SLANT "R"
SETWIDTH_NAME "Normal"
ADD_STYLE_NAME ""
PIXEL_SIZE 16
POINT_SIZE 150
RESOLUTION_X 75
RESOLUTION_Y 75
SPACING "P"
AVERAGE_WIDTH 95
CHARSET_REGISTRY "ISO10646"
CHARSET_ENCODING "1"
FONTNAME_REGISTRY ""
CHARSET_COLLECTIONS "ISO8859-2 ISO8859-5 ISO8859-7 ISO8859-9 ISO8859-4 ISO10646-1"
FONT_NAME "LucidaGrande"
FACE_NAME "Lucida Grande"
COPYRIGHT "Copyright 1997 Bigelow & Holmes Inc. U.S. Pat. Des. 289,420. All rights reserved."
FONT_VERSION "0.24.1"
FONT_ASCENT 13
FONT_DESCENT 3
UNDERLINE_POSITION 0
UNDERLINE_THICKNESS 0
X_HEIGHT 8
CAP_HEIGHT 11
RAW_ASCENT 799
RAW_DESCENT 200
NORM_SPACE 5
RELATIVE_WEIGHT 40
RELATIVE_SETWIDTH 50
SUPERSCRIPT_X 0
SUPERSCRIPT_Y 2
SUPERSCRIPT_SIZE 1
SUBSCRIPT_X 0
SUBSCRIPT_Y 2
SUBSCRIPT_SIZE 1
FIGURE_WIDTH 10
AVG_LOWERCASE_WIDTH 90
AVG_UPPERCASE_WIDTH 103
ENDPROPERTIES
CHARS 497
STARTCHAR space
ENCODING 32
SWIDTH 315 0
DWIDTH 5 0
BBX 1 1 0 0
BITMAP
00
ENDCHAR
STARTCHAR exclam
ENCODING 33
SWIDTH 316 0
DWIDTH 5 0
BBX 1 12 2 0
BITMAP
80
80
80
80
80
80
80
80
80
00
00
80
ENDCHAR
STARTCHAR quotedbl
ENCODING 34
SWIDTH 373 0
DWIDTH 6 0
BBX 4 4 1 8
BITMAP
90
90
90
90
ENDCHAR
STARTCHAR numbersign
ENCODING 35
SWIDTH 632 0
DWIDTH 10 0
BBX 9 12 1 0
BITMAP
0900
0900
1200
1200
7F80
1200
2400
2400
FF00
2400
4800
4800
ENDCHAR
STARTCHAR dollar
ENCODING 36
SWIDTH 632 0
DWIDTH 10 0
BBX 6 14 2 -1
BITMAP
10
38
54
90
90
50
30
18
14
14
14
94
78
10
ENDCHAR
STARTCHAR percent
ENCODING 37
SWIDTH 668 0
DWIDTH 11 0
BBX 11 12 0 0
BITMAP
7020
8840
8880
8900
8A00
7400
05C0
0A20
1220
2220
4220
81C0
ENDCHAR
STARTCHAR ampersand
ENCODING 38
SWIDTH 697 0
DWIDTH 11 0
BBX 9 12 1 0
BITMAP
1C00
2200
2200
2400
1800
3000
4880
8880
8480
8300
4300
3C80
ENDCHAR
STARTCHAR quotesingle
ENCODING 39
SWIDTH 229 0
DWIDTH 4 0
BBX 1 4 1 8
BITMAP
80
80
80
80
ENDCHAR
STARTCHAR parenleft
ENCODING 40
SWIDTH 325 0
DWIDTH 5 0
BBX 4 14 1 -2
BITMAP
10
20
40
40
80
80
80
80
80
80
40
40
20
10
ENDCHAR
STARTCHAR parenright
ENCODING 41
SWIDTH 325 0
DWIDTH 5 0
BBX 4 14 0 -2
BITMAP
80
40
20
20
10
10
10
10
10
10
20
20
40
80
ENDCHAR
STARTCHAR asterisk
ENCODING 42
SWIDTH 481 0
DWIDTH 8 0
BBX 5 6 1 6
BITMAP
20
20
A8
50
20
50
ENDCHAR
STARTCHAR plus
ENCODING 43
SWIDTH 794 0
DWIDTH 13 0
BBX 9 9 2 0
BITMAP
0800
0800
0800
0800
FF80
0800
0800
0800
0800
ENDCHAR
STARTCHAR comma
ENCODING 44
SWIDTH 316 0
DWIDTH 5 0
BBX 2 4 1 -3
BITMAP
40
40
40
80
ENDCHAR
STARTCHAR hyphen
ENCODING 45
SWIDTH 542 0
DWIDTH 9 0
BBX 6 1 1 4
BITMAP
FC
ENDCHAR
STARTCHAR period
ENCODING 46
SWIDTH 316 0
DWIDTH 5 0
BBX 1 1 2 0
BITMAP
80
ENDCHAR
STARTCHAR slash
ENCODING 47
SWIDTH 524 0
DWIDTH 8 0
BBX 5 14 2 -2
BITMAP
08
08
10
10
10
20
20
20
20
40
40
40
80
80
ENDCHAR
STARTCHAR zero
ENCODING 48
SWIDTH 632 0
DWIDTH 10 0
BBX 8 12 1 0
BITMAP
3C
42
42
81
81
81
81
81
81
42
42
3C
ENDCHAR
STARTCHAR one
ENCODING 49
SWIDTH 632 0
DWIDTH 10 0
BBX 5 12 3 0
BITMAP
20
E0
20
20
20
20
20
20
20
20
20
F8
ENDCHAR
STARTCHAR two
ENCODING 50
SWIDTH 632 0
DWIDTH 10 0
BBX 7 12 1 0
BITMAP
78
84
02
02
02
04
08
10
20
40
80
FE
ENDCHAR
STARTCHAR three
ENCODING 51
SWIDTH 632 0
DWIDTH 10 0
BBX 7 12 2 0
BITMAP
7C
82
02
02
04
78
04
02
02
02
84
78
ENDCHAR
STARTCHAR four
ENCODING 52
SWIDTH 632 0
DWIDTH 10 0
BBX 8 12 1 0
BITMAP
04
0C
0C
14
24
24
44
84
FF
04
04
04
ENDCHAR
STARTCHAR five
ENCODING 53
SWIDTH 632 0
DWIDTH 10 0
BBX 6 12 2 0
BITMAP
FC
80
80
80
F0
08
04
04
04
04
88
70
ENDCHAR
STARTCHAR six
ENCODING 54
SWIDTH 632 0
DWIDTH 10 0
BBX 8 12 1 0
BITMAP
3C
42
80
80
BC
C2
81
81
81
81
42
3C
ENDCHAR
STARTCHAR seven
ENCODING 55
SWIDTH 632 0
DWIDTH 10 0
BBX 8 12 1 0
BITMAP
FF
01
02
04
04
08
10
10
20
20
40
40
ENDCHAR
STARTCHAR eight
ENCODING 56
SWIDTH 632 0
DWIDTH 10 0
BBX 8 12 1 0
BITMAP
3C
42
42
42
24
38
46
81
81
81
42
3C
ENDCHAR
STARTCHAR nine
ENCODING 57
SWIDTH 632 0
DWIDTH 10 0
BBX 8 12 1 0
BITMAP
3C
42
81
81
81
81
43
3D
01
01
42
3C
ENDCHAR
STARTCHAR colon
ENCODING 58
SWIDTH 316 0
DWIDTH 5 0
BBX 1 9 2 0
BITMAP
80
00
00
00
00
00
00
00
80
ENDCHAR
STARTCHAR semicolon
ENCODING 59
SWIDTH 316 0
DWIDTH 5 0
BBX 2 12 1 -3
BITMAP
40
00
00
00
00
00
00
00
40
40
40
80
ENDCHAR
STARTCHAR less
ENCODING 60
SWIDTH 794 0
DWIDTH 13 0
BBX 9 9 2 0
BITMAP
0080
0300
0C00
3000
C000
3000
0C00
0300
0080
ENDCHAR
STARTCHAR equal
ENCODING 61
SWIDTH 794 0
DWIDTH 13 0
BBX 9 4 2 3
BITMAP
FF80
0000
0000
FF80
ENDCHAR
STARTCHAR greater
ENCODING 62
SWIDTH 794 0
DWIDTH 13 0
BBX 9 9 2 0
BITMAP
8000
6000
1800
0600
0180
0600
1800
6000
8000
ENDCHAR
STARTCHAR question
ENCODING 63
SWIDTH 421 0
DWIDTH 7 0
BBX 6 12 0 0
BITMAP
78
84
04
04
08
10
20
20
20
00
00
20
ENDCHAR
STARTCHAR at
ENCODING 64
SWIDTH 858 0
DWIDTH 14 0
BBX 12 12 1 0
BITMAP
0780
1860
2020
4790
4890
9090
9110
9320
9DC0
4000
6100
1E00
ENDCHAR
STARTCHAR A
ENCODING 65
SWIDTH 689 0
DWIDTH 11 0
BBX 11 12 0 0
BITMAP
0400
0A00
0A00
1100
1100
1100
2080
2080
7FC0
4040
4040
8020
ENDCHAR
STARTCHAR B
ENCODING 66
SWIDTH 575 0
DWIDTH 9 0
BBX 6 12 2 0
BITMAP
F8
84
84
84
88
F0
88
84
84
84
84
F8
ENDCHAR
STARTCHAR C
ENCODING 67
SWIDTH 691 0
DWIDTH 11 0
BBX 9 12 1 0
BITMAP
1F00
6080
4000
8000
8000
8000
8000
8000
8000
4000
6080
1F00
ENDCHAR
STARTCHAR D
ENCODING 68
SWIDTH 749 0
DWIDTH 12 0
BBX 9 12 2 0
BITMAP
FC00
8300
8100
8080
8080
8080
8080
8080
8080
8100
8300
FC00
ENDCHAR
STARTCHAR E
ENCODING 69
SWIDTH 541 0
DWIDTH 9 0
BBX 6 12 2 0
BITMAP
FC
80
80
80
80
F8
80
80
80
80
80
FC
ENDCHAR
STARTCHAR F
ENCODING 70
SWIDTH 536 0
DWIDTH 9 0
BBX 6 12 2 0
BITMAP
FC
80
80
80
80
F8
80
80
80
80
80
80
ENDCHAR
STARTCHAR G
ENCODING 71
SWIDTH 722 0
DWIDTH 12 0
BBX 9 12 1 0
BITMAP
1F00
6080
4000
8000
8000
8000
8000
8080
8080
4080
6080
1F80
ENDCHAR
STARTCHAR H
ENCODING 72
SWIDTH 734 0
DWIDTH 12 0
BBX 8 12 2 0
BITMAP
81
81
81
81
81
FF
81
81
81
81
81
81
ENDCHAR
STARTCHAR I
ENCODING 73
SWIDTH 288 0
DWIDTH 5 0
BBX 1 12 2 0
BITMAP
80
80
80
80
80
80
80
80
80
80
80
80
ENDCHAR
STARTCHAR J
ENCODING 74
SWIDTH 311 0
DWIDTH 5 0
BBX 4 14 -1 -2
BITMAP
10
10
10
10
10
10
10
10
10
10
10
10
10
E0
ENDCHAR
STARTCHAR K
ENCODING 75
SWIDTH 652 0
DWIDTH 10 0
BBX 8 12 2 0
BITMAP
82
84
88
90
A0
C0
A0
90
88
84
82
81
ENDCHAR
STARTCHAR L
ENCODING 76
SWIDTH 533 0
DWIDTH 9 0
BBX 7 12 2 0
BITMAP
80
80
80
80
80
80
80
80
80
80
80
FE
ENDCHAR
STARTCHAR M
ENCODING 77
SWIDTH 861 0
DWIDTH 14 0
BBX 11 12 1 0
BITMAP
8020
C060
C060
A0A0
A0A0
A0A0
9120
9120
8A20
8A20
8420
8020
ENDCHAR
STARTCHAR N
ENCODING 78
SWIDTH 738 0
DWIDTH 12 0
BBX 8 12 2 0
BITMAP
81
C1
A1
A1
91
91
89
89
85
85
83
81
ENDCHAR
STARTCHAR O
ENCODING 79
SWIDTH 776 0
DWIDTH 12 0
BBX 10 12 1 0
BITMAP
1E00
6180
4080
8040
8040
8040
8040
8040
8040
4080
6180
1E00
ENDCHAR
STARTCHAR P
ENCODING 80
SWIDTH 552 0
DWIDTH 9 0
BBX 6 12 2 0
BITMAP
F8
84
84
84
84
88
F0
80
80
80
80
80
ENDCHAR
STARTCHAR Q
ENCODING 81
SWIDTH 776 0
DWIDTH 12 0
BBX 12 14 1 -2
BITMAP
1E00
6180
4080
8040
8040
8040
8040
8040
8040
4080
6180
1E00
0180
0070
ENDCHAR
STARTCHAR R
ENCODING 82
SWIDTH 632 0
DWIDTH 10 0
BBX 7 12 2 0
BITMAP
F8
84
84
84
84
88
F0
A0
90
88
84
82
ENDCHAR
STARTCHAR S
ENCODING 83
SWIDTH 538 0
DWIDTH 9 0
BBX 7 12 1 0
BITMAP
38
44
80
80
40
30
0C
02
02
02
84
78
ENDCHAR
STARTCHAR T
ENCODING 84
SWIDTH 632 0
DWIDTH 10 0
BBX 10 12 0 0
BITMAP
FFC0
0800
0800
0800
0800
0800
0800
0800
0800
0800
0800
0800
ENDCHAR
STARTCHAR U
ENCODING 85
SWIDTH 692 0
DWIDTH 11 0
BBX 7 12 2 0
BITMAP
82
82
82
82
82
82
82
82
82
82
44
38
ENDCHAR
STARTCHAR V
ENCODING 86
SWIDTH 653 0
DWIDTH 10 0
BBX 9 12 0 0
BITMAP
8080
8080
4100
4100
4100
2200
2200
2200
1400
1400
1400
0800
ENDCHAR
STARTCHAR W
ENCODING 87
SWIDTH 855 0
DWIDTH 14 0
BBX 14 12 0 0
BITMAP
8204
8208
4208
4508
4510
4510
2890
28A0
28A0
28A0
1040
1040
ENDCHAR
STARTCHAR X
ENCODING 88
SWIDTH 625 0
DWIDTH 10 0
BBX 10 12 0 0
BITMAP
8040
4080
2100
1200
1200
0C00
0C00
1200
1200
2100
4080
8040
ENDCHAR
STARTCHAR Y
ENCODING 89
SWIDTH 623 0
DWIDTH 10 0
BBX 9 12 0 0
BITMAP
8080
4100
4100
2200
1400
1400
0800
0800
0800
0800
0800
0800
ENDCHAR
STARTCHAR Z
ENCODING 90
SWIDTH 604 0
DWIDTH 10 0
BBX 8 12 1 0
BITMAP
FF
01
02
04
04
08
10
20
20
40
80
FF
ENDCHAR
STARTCHAR bracketleft
ENCODING 91
SWIDTH 325 0
DWIDTH 5 0
BBX 3 14 2 -2
BITMAP
E0
80
80
80
80
80
80
80
80
80
80
80
80
E0
ENDCHAR
STARTCHAR backslash
ENCODING 92
SWIDTH 524 0
DWIDTH 8 0
BBX 5 14 2 -2
BITMAP
80
80
40
40
40
20
20
20
20
10
10
10
08
08
ENDCHAR
STARTCHAR bracketright
ENCODING 93
SWIDTH 325 0
DWIDTH 5 0
BBX 3 14 1 -2
BITMAP
E0
20
20
20
20
20
20
20
20
20
20
20
20
E0
ENDCHAR
STARTCHAR asciicircum
ENCODING 94
SWIDTH 632 0
DWIDTH 10 0
BBX 9 8 1 4
BITMAP
0800
0800
1400
1400
2200
4100
4100
8080
ENDCHAR
STARTCHAR underscore
ENCODING 95
SWIDTH 500 0
DWIDTH 8 0
BBX 6 1 1 -1
BITMAP
FC
ENDCHAR
STARTCHAR grave
ENCODING 96
SWIDTH 614 0
DWIDTH 10 0
BBX 3 3 4 10
BITMAP
80
40
20
ENDCHAR
STARTCHAR a
ENCODING 97
SWIDTH 552 0
DWIDTH 9 0
BBX 8 9 1 0
BITMAP
78
84
04
04
3C
44
84
8C
77
ENDCHAR
STARTCHAR b
ENCODING 98
SWIDTH 629 0
DWIDTH 10 0
BBX 7 12 1 0
BITMAP
80
80
80
B8
C4
82
82
82
82
82
C4
B8
ENDCHAR
STARTCHAR c
ENCODING 99
SWIDTH 512 0
DWIDTH 8 0
BBX 5 9 1 0
BITMAP
30
48
80
80
80
80
80
48
30
ENDCHAR
STARTCHAR d
ENCODING 100
SWIDTH 629 0
DWIDTH 10 0
BBX 7 12 1 0
BITMAP
02
02
02
3A
46
82
82
82
82
82
46
3A
ENDCHAR
STARTCHAR e
ENCODING 101
SWIDTH 557 0
DWIDTH 9 0
BBX 6 9 1 0
BITMAP
30
48
84
84
FC
80
80
44
38
ENDCHAR
STARTCHAR f
ENCODING 102
SWIDTH 367 0
DWIDTH 6 0
BBX 5 12 1 0
BITMAP
38
40
40
F0
40
40
40
40
40
40
40
40
ENDCHAR
STARTCHAR g
ENCODING 103
SWIDTH 623 0
DWIDTH 10 0
BBX 7 12 1 -3
BITMAP
3A
46
82
82
82
82
82
46
3A
02
84
78
ENDCHAR
STARTCHAR h
ENCODING 104
SWIDTH 620 0
DWIDTH 10 0
BBX 7 12 1 0
BITMAP
80
80
80
9C
A2
C2
82
82
82
82
82
82
ENDCHAR
STARTCHAR i
ENCODING 105
SWIDTH 289 0
DWIDTH 5 0
BBX 1 12 2 0
BITMAP
80
00
00
80
80
80
80
80
80
80
80
80
ENDCHAR
STARTCHAR j
ENCODING 106
SWIDTH 304 0
DWIDTH 5 0
BBX 4 15 -1 -3
BITMAP
10
00
00
10
10
10
10
10
10
10
10
10
10
10
E0
ENDCHAR
STARTCHAR k
ENCODING 107
SWIDTH 584 0
DWIDTH 9 0
BBX 7 12 1 0
BITMAP
80
80
80
84
88
90
A0
E0
90
88
84
82
ENDCHAR
STARTCHAR l
ENCODING 108
SWIDTH 289 0
DWIDTH 5 0
BBX 1 12 2 0
BITMAP
80
80
80
80
80
80
80
80
80
80
80
80
ENDCHAR
STARTCHAR m
ENCODING 109
SWIDTH 933 0
DWIDTH 15 0
BBX 13 9 1 0
BITMAP
9C70
A288
C308
8208
8208
8208
8208
8208
8208
ENDCHAR
STARTCHAR n
ENCODING 110
SWIDTH 620 0
DWIDTH 10 0
BBX 7 9 1 0
BITMAP
9C
A2
C2
82
82
82
82
82
82
ENDCHAR
STARTCHAR o
ENCODING 111
SWIDTH 614 0
DWIDTH 10 0
BBX 7 9 1 0
BITMAP
38
44
82
82
82
82
82
44
38
ENDCHAR
STARTCHAR p
ENCODING 112
SWIDTH 629 0
DWIDTH 10 0
BBX 7 12 1 -3
BITMAP
B8
C4
82
82
82
82
82
C4
B8
80
80
80
ENDCHAR
STARTCHAR q
ENCODING 113
SWIDTH 629 0
DWIDTH 10 0
BBX 7 12 1 -3
BITMAP
3A
46
82
82
82
82
82
46
3A
02
02
02
ENDCHAR
STARTCHAR r
ENCODING 114
SWIDTH 409 0
DWIDTH 7 0
BBX 5 9 1 0
BITMAP
98
A0
C0
80
80
80
80
80
80
ENDCHAR
STARTCHAR s
ENCODING 115
SWIDTH 509 0
DWIDTH 8 0
BBX 6 9 1 0
BITMAP
78
84
80
60
18
04
04
84
78
ENDCHAR
STARTCHAR t
ENCODING 116
SWIDTH 374 0
DWIDTH 6 0
BBX 5 11 1 0
BITMAP
40
40
F8
40
40
40
40
40
40
40
38
ENDCHAR
STARTCHAR u
ENCODING 117
SWIDTH 620 0
DWIDTH 10 0
BBX 7 9 1 0
BITMAP
82
82
82
82
82
82
86
8A
72
ENDCHAR
STARTCHAR v
ENCODING 118
SWIDTH 517 0
DWIDTH 8 0
BBX 7 9 0 0
BITMAP
82
82
44
44
44
28
28
28
10
ENDCHAR
STARTCHAR w
ENCODING 119
SWIDTH 770 0
DWIDTH 12 0
BBX 11 9 0 0
BITMAP
8420
4440
4A40
4A40
2A80
2A80
2A80
1100
1100
ENDCHAR
STARTCHAR x
ENCODING 120
SWIDTH 613 0
DWIDTH 10 0
BBX 8 9 1 0
BITMAP
81
42
24
18
10
18
24
42
81
ENDCHAR
STARTCHAR y
ENCODING 121
SWIDTH 522 0
DWIDTH 8 0
BBX 7 12 0 -3
BITMAP
82
44
44
44
28
28
30
10
20
20
20
40
ENDCHAR
STARTCHAR z
ENCODING 122
SWIDTH 573 0
DWIDTH 9 0
BBX 7 9 1 0
BITMAP
FE
02
04
08
10
20
40
80
FE
ENDCHAR
STARTCHAR braceleft
ENCODING 123
SWIDTH 325 0
DWIDTH 5 0
BBX 3 14 1 -2
BITMAP
20
40
40
40
40
40
80
40
40
40
40
40
40
20
ENDCHAR
STARTCHAR bar
ENCODING 124
SWIDTH 373 0
DWIDTH 6 0
BBX 1 14 2 -2
BITMAP
80
80
80
80
80
80
80
80
80
80
80
80
80
80
ENDCHAR
STARTCHAR braceright
ENCODING 125
SWIDTH 325 0
DWIDTH 5 0
BBX 3 14 1 -2
BITMAP
80
40
40
40
40
40
20
40
40
40
40
40
40
80
ENDCHAR
STARTCHAR asciitilde
ENCODING 126
SWIDTH 632 0
DWIDTH 10 0
BBX 8 3 1 3
BITMAP
61
99
86
ENDCHAR
STARTCHAR quotesinglbase
ENCODING 130
SWIDTH 316 0
DWIDTH 5 0
BBX 2 4 1 -2
BITMAP
40
40
40
80
ENDCHAR
STARTCHAR florin
ENCODING 131
SWIDTH 632 0
DWIDTH 10 0
BBX 8 14 2 -2
BITMAP
0F
10
20
20
20
F0
40
40
40
40
40
80
80
80
ENDCHAR
STARTCHAR quotedblbase
ENCODING 132
SWIDTH 373 0
DWIDTH 6 0
BBX 4 4 1 -3
BITMAP
50
50
50
A0
ENDCHAR
STARTCHAR ellipsis
ENCODING 133
SWIDTH 1000 0
DWIDTH 16 0
BBX 11 1 2 0
BITMAP
8420
ENDCHAR
STARTCHAR dagger
ENCODING 134
SWIDTH 632 0
DWIDTH 10 0
BBX 7 14 1 -2
BITMAP
10
10
10
10
FE
10
10
10
10
10
10
10
10
10
ENDCHAR
STARTCHAR daggerdbl
ENCODING 135
SWIDTH 632 0
DWIDTH 10 0
BBX 7 14 1 -2
BITMAP
10
10
10
10
FE
10
10
10
10
FE
10
10
10
10
ENDCHAR
STARTCHAR circumflex
ENCODING 136
SWIDTH 614 0
DWIDTH 10 0
BBX 5 3 2 10
BITMAP
20
50
88
ENDCHAR
STARTCHAR perthousand
ENCODING 137
SWIDTH 1012 0
DWIDTH 16 0
BBX 16 12 0 0
BITMAP
7040
8880
8900
8A00
8A00
7400
0B8E
1451
1451
2451
4451
838E
ENDCHAR
STARTCHAR Scaron
ENCODING 138
SWIDTH 538 0
DWIDTH 9 0
BBX 7 16 1 0
BITMAP
24
1C
18
00
38
44
80
80
40
30
0C
02
02
02
84
78
ENDCHAR
STARTCHAR guilsinglleft
ENCODING 139
SWIDTH 331 0
DWIDTH 5 0
BBX 4 7 1 1
BITMAP
10
20
40
80
40
20
10
ENDCHAR
STARTCHAR OE
ENCODING 140
SWIDTH 1000 0
DWIDTH 16 0
BBX 13 12 2 0
BITMAP
1DF8
6300
4100
8100
8100
81F0
8100
8100
8100
4100
6300
1DF8
ENDCHAR
STARTCHAR quoteleft
ENCODING 145
SWIDTH 316 0
DWIDTH 5 0
BBX 2 4 2 8
BITMAP
40
80
80
80
ENDCHAR
STARTCHAR quoteright
ENCODING 146
SWIDTH 316 0
DWIDTH 5 0
BBX 2 4 1 8
BITMAP
40
40
40
80
ENDCHAR
STARTCHAR quotedblleft
ENCODING 147
SWIDTH 373 0
DWIDTH 6 0
BBX 4 4 1 8
BITMAP
50
A0
A0
A0
ENDCHAR
STARTCHAR quotedblright
ENCODING 148
SWIDTH 373 0
DWIDTH 6 0
BBX 4 4 1 8
BITMAP
50
50
50
A0
ENDCHAR
STARTCHAR bullet
ENCODING 149
SWIDTH 560 0
DWIDTH 9 0
BBX 6 6 2 1
BITMAP
78
FC
FC
FC
FC
78
ENDCHAR
STARTCHAR endash
ENCODING 150
SWIDTH 500 0
DWIDTH 8 0
BBX 6 1 1 4
BITMAP
FC
ENDCHAR
STARTCHAR emdash
ENCODING 151
SWIDTH 1000 0
DWIDTH 16 0
BBX 12 1 2 4
BITMAP
FFF0
ENDCHAR
STARTCHAR tilde
ENCODING 152
SWIDTH 614 0
DWIDTH 10 0
BBX 6 2 2 10
BITMAP
64
98
ENDCHAR
STARTCHAR trademark
ENCODING 153
SWIDTH 807 0
DWIDTH 13 0
BBX 12 6 0 6
BITMAP
FA10
2330
2330
22D0
22D0
2290
ENDCHAR
STARTCHAR scaron
ENCODING 154
SWIDTH 509 0
DWIDTH 8 0
BBX 6 13 1 0
BITMAP
64
28
18
00
78
84
80
60
18
04
04
84
78
ENDCHAR
STARTCHAR guilsinglright
ENCODING 155
SWIDTH 331 0
DWIDTH 5 0
BBX 4 7 0 1
BITMAP
80
40
20
10
20
40
80
ENDCHAR
STARTCHAR oe
ENCODING 156
SWIDTH 928 0
DWIDTH 15 0
BBX 12 9 1 0
BITMAP
38C0
4520
8210
8210
83F0
8200
8200
4510
38E0
ENDCHAR
STARTCHAR Ydieresis
ENCODING 159
SWIDTH 623 0
DWIDTH 10 0
BBX 9 14 0 0
BITMAP
1200
0000
8080
4100
4100
2200
1400
1400
0800
0800
0800
0800
0800
0800
ENDCHAR
STARTCHAR nonbreakingspace
ENCODING 160
SWIDTH 315 0
DWIDTH 5 0
BBX 1 1 0 0
BITMAP
00
ENDCHAR
STARTCHAR exclamdown
ENCODING 161
SWIDTH 316 0
DWIDTH 5 0
BBX 1 12 2 -3
BITMAP
80
00
00
80
80
80
80
80
80
80
80
80
ENDCHAR
STARTCHAR cent
ENCODING 162
SWIDTH 632 0
DWIDTH 10 0
BBX 7 12 2 0
BITMAP
10
3C
52
90
90
90
90
90
90
52
3C
10
ENDCHAR
STARTCHAR sterling
ENCODING 163
SWIDTH 632 0
DWIDTH 10 0
BBX 7 12 2 0
BITMAP
1E
20
20
20
20
F8
20
20
20
20
40
FE
ENDCHAR
STARTCHAR currency
ENCODING 164
SWIDTH 632 0
DWIDTH 10 0
BBX 7 7 2 2
BITMAP
BA
44
82
82
82
44
BA
ENDCHAR
STARTCHAR yen
ENCODING 165
SWIDTH 632 0
DWIDTH 10 0
BBX 9 12 0 0
BITMAP
8080
4100
2200
2200
1400
0800
3E00
0800
3E00
0800
0800
0800
ENDCHAR
STARTCHAR brokenbar
ENCODING 166
SWIDTH 373 0
DWIDTH 6 0
BBX 1 14 2 -2
BITMAP
80
80
80
80
80
80
00
00
00
80
80
80
80
80
ENDCHAR
STARTCHAR section
ENCODING 167
SWIDTH 632 0
DWIDTH 10 0
BBX 7 14 2 -2
BITMAP
7C
82
80
80
60
98
84
82
62
1C
04
02
82
7C
ENDCHAR
STARTCHAR dieresis
ENCODING 168
SWIDTH 614 0
DWIDTH 10 0
BBX 4 1 3 10
BITMAP
90
ENDCHAR
STARTCHAR copyright
ENCODING 169
SWIDTH 855 0
DWIDTH 14 0
BBX 12 12 1 0
BITMAP
0F00
30C0
4020
4F20
9010
9010
9010
9010
4F20
4020
30C0
0F00
ENDCHAR
STARTCHAR ordfeminine
ENCODING 170
SWIDTH 421 0
DWIDTH 7 0
BBX 5 5 1 7
BITMAP
E0
10
70
90
F8
ENDCHAR
STARTCHAR guillemotleft
ENCODING 171
SWIDTH 523 0
DWIDTH 8 0
BBX 7 7 1 1
BITMAP
12
24
48
90
48
24
12
ENDCHAR
STARTCHAR logicalnot
ENCODING 172
SWIDTH 795 0
DWIDTH 13 0
BBX 9 5 2 2
BITMAP
FF80
0080
0080
0080
0080
ENDCHAR
STARTCHAR uni00AD
ENCODING 173
SWIDTH 542 0
DWIDTH 9 0
BBX 7 1 1 4
BITMAP
FE
ENDCHAR
STARTCHAR registered
ENCODING 174
SWIDTH 855 0
DWIDTH 14 0
BBX 12 12 1 0
BITMAP
0F00
30C0
4020
4F20
8910
8E10
8A10
8910
48A0
4020
30C0
0F00
ENDCHAR
STARTCHAR degree
ENCODING 176
SWIDTH 276 0
DWIDTH 4 0
BBX 3 3 1 9
BITMAP
E0
A0
E0
ENDCHAR
STARTCHAR plusminus
ENCODING 177
SWIDTH 795 0
DWIDTH 13 0
BBX 9 9 2 0
BITMAP
0800
0800
0800
FF80
0800
0800
0800
0000
FF80
ENDCHAR
STARTCHAR twosuperior
ENCODING 178
SWIDTH 421 0
DWIDTH 7 0
BBX 4 7 1 5
BITMAP
60
90
10
20
40
80
F0
ENDCHAR
STARTCHAR threesuperior
ENCODING 179
SWIDTH 421 0
DWIDTH 7 0
BBX 4 7 1 5
BITMAP
60
90
10
60
10
90
E0
ENDCHAR
STARTCHAR acute
ENCODING 180
SWIDTH 614 0
DWIDTH 10 0
BBX 3 3 3 10
BITMAP
20
40
80
ENDCHAR
STARTCHAR mu
ENCODING 181
SWIDTH 626 0
DWIDTH 10 0
BBX 7 12 1 -3
BITMAP
82
82
82
82
82
82
86
8A
F2
80
80
80
ENDCHAR
STARTCHAR paragraph
ENCODING 182
SWIDTH 632 0
DWIDTH 10 0
BBX 6 14 2 -2
BITMAP
7C
F4
F4
F4
F4
74
14
14
14
14
14
14
14
14
ENDCHAR
STARTCHAR cedilla
ENCODING 184
SWIDTH 614 0
DWIDTH 10 0
BBX 3 3 4 -3
BITMAP
C0
20
C0
ENDCHAR
STARTCHAR onesuperior
ENCODING 185
SWIDTH 421 0
DWIDTH 7 0
BBX 5 7 1 5
BITMAP
60
A0
20
20
20
20
F8
ENDCHAR
STARTCHAR ordmasculine
ENCODING 186
SWIDTH 421 0
DWIDTH 7 0
BBX 5 5 1 7
BITMAP
70
88
88
88
70
ENDCHAR
STARTCHAR guillemotright
ENCODING 187
SWIDTH 523 0
DWIDTH 8 0
BBX 7 7 1 1
BITMAP
90
48
24
12
24
48
90
ENDCHAR
STARTCHAR onequarter
ENCODING 188
SWIDTH 801 0
DWIDTH 13 0
BBX 11 12 1 0
BITMAP
4080
C080
4100
4200
4200
4440
48C0
0940
1240
23E0
4040
4040
ENDCHAR
STARTCHAR onehalf
ENCODING 189
SWIDTH 801 0
DWIDTH 13 0
BBX 11 12 1 0
BITMAP
4080
C100
4100
4200
4400
45E0
4820
1020
2040
2080
4100
81E0
ENDCHAR
STARTCHAR threequarters
ENCODING 190
SWIDTH 801 0
DWIDTH 13 0
BBX 11 12 1 0
BITMAP
E040
10C0
1080
E100
3200
1240
34C0
C940
0A40
13E0
2040
6040
ENDCHAR
STARTCHAR questiondown
ENCODING 191
SWIDTH 421 0
DWIDTH 7 0
BBX 6 12 1 -3
BITMAP
10
00
00
10
10
10
20
40
80
80
84
78
ENDCHAR
STARTCHAR Agrave
ENCODING 192
SWIDTH 689 0
DWIDTH 11 0
BBX 11 16 0 0
BITMAP
1800
0C00
0200
0000
0400
0A00
0A00
1100
1100
1100
2080
2080
7FC0
4040
4040
8020
ENDCHAR
STARTCHAR Aacute
ENCODING 193
SWIDTH 689 0
DWIDTH 11 0
BBX 11 16 0 0
BITMAP
0200
0600
0400
0000
0400
0A00
0A00
1100
1100
1100
2080
2080
7FC0
4040
4040
8020
ENDCHAR
STARTCHAR Acircumflex
ENCODING 194
SWIDTH 689 0
DWIDTH 11 0
BBX 11 16 0 0
BITMAP
0600
0700
0900
0000
0400
0A00
0A00
1100
1100
1100
2080
2080
7FC0
4040
4040
8020
ENDCHAR
STARTCHAR Atilde
ENCODING 195
SWIDTH 689 0
DWIDTH 11 0
BBX 11 15 0 0
BITMAP
1D80
1700
0000
0400
0A00
0A00
1100
1100
1100
2080
2080
7FC0
4040
4040
8020
ENDCHAR
STARTCHAR Adieresis
ENCODING 196
SWIDTH 689 0
DWIDTH 11 0
BBX 11 14 0 0
BITMAP
0900
0000
0400
0A00
0A00
1100
1100
1100
2080
2080
7FC0
4040
4040
8020
ENDCHAR
STARTCHAR Aring
ENCODING 197
SWIDTH 689 0
DWIDTH 11 0
BBX 11 16 0 0
BITMAP
0E00
0B00
0B00
0E00
0400
0A00
0A00
1100
1100
1100
2080
2080
7FC0
4040
4040
8020
ENDCHAR
STARTCHAR AE
ENCODING 198
SWIDTH 906 0
DWIDTH 15 0
BBX 14 12 0 0
BITMAP
01FC
0300
0300
0500
0900
09F8
1100
1F00
2100
2100
4100
81FC
ENDCHAR
STARTCHAR Ccedilla
ENCODING 199
SWIDTH 691 0
DWIDTH 11 0
BBX 9 15 1 -3
BITMAP
1F00
6080
4000
8000
8000
8000
8000
8000
8000
4000
6080
1F00
0600
0100
0600
ENDCHAR
STARTCHAR Egrave
ENCODING 200
SWIDTH 541 0
DWIDTH 9 0
BBX 6 16 2 0
BITMAP
40
20
10
00
FC
80
80
80
80
F8
80
80
80
80
80
FC
ENDCHAR
STARTCHAR Eacute
ENCODING 201
SWIDTH 541 0
DWIDTH 9 0
BBX 6 16 2 0
BITMAP
0C
18
10
00
FC
80
80
80
80
F8
80
80
80
80
80
FC
ENDCHAR
STARTCHAR Ecircumflex
ENCODING 202
SWIDTH 541 0
DWIDTH 9 0
BBX 6 16 2 0
BITMAP
30
28
4C
00
FC
80
80
80
80
F8
80
80
80
80
80
FC
ENDCHAR
STARTCHAR Edieresis
ENCODING 203
SWIDTH 541 0
DWIDTH 9 0
BBX 6 14 2 0
BITMAP
48
00
FC
80
80
80
80
F8
80
80
80
80
80
FC
ENDCHAR
STARTCHAR Igrave
ENCODING 204
SWIDTH 288 0
DWIDTH 5 0
BBX 3 16 0 0
BITMAP
C0
60
20
00
20
20
20
20
20
20
20
20
20
20
20
20
ENDCHAR
STARTCHAR Iacute
ENCODING 205
SWIDTH 288 0
DWIDTH 5 0
BBX 3 16 2 0
BITMAP
20
40
80
00
80
80
80
80
80
80
80
80
80
80
80
80
ENDCHAR
STARTCHAR Icircumflex
ENCODING 206
SWIDTH 288 0
DWIDTH 5 0
BBX 4 16 1 0
BITMAP
60
E0
90
00
40
40
40
40
40
40
40
40
40
40
40
40
ENDCHAR
STARTCHAR Idieresis
ENCODING 207
SWIDTH 288 0
DWIDTH 5 0
BBX 4 14 0 0
BITMAP
90
00
20
20
20
20
20
20
20
20
20
20
20
20
ENDCHAR
STARTCHAR Eth
ENCODING 208
SWIDTH 758 0
DWIDTH 12 0
BBX 10 12 1 0
BITMAP
7E00
4180
4080
4040
4040
F840
4040
4040
4040
4080
4180
7E00
ENDCHAR
STARTCHAR Ntilde
ENCODING 209
SWIDTH 738 0
DWIDTH 12 0
BBX 8 15 2 0
BITMAP
32
4E
00
81
C1
A1
A1
91
91
89
89
85
85
83
81
ENDCHAR
STARTCHAR Ograve
ENCODING 210
SWIDTH 776 0
DWIDTH 12 0
BBX 10 16 1 0
BITMAP
3000
1800
0800
0000
1E00
6180
4080
8040
8040
8040
8040
8040
8040
4080
6180
1E00
ENDCHAR
STARTCHAR Oacute
ENCODING 211
SWIDTH 776 0
DWIDTH 12 0
BBX 10 16 1 0
BITMAP
0100
0200
0400
0000
1E00
6180
4080
8040
8040
8040
8040
8040
8040
4080
6180
1E00
ENDCHAR
STARTCHAR Ocircumflex
ENCODING 212
SWIDTH 776 0
DWIDTH 12 0
BBX 10 16 1 0
BITMAP
0C00
1C00
1200
0000
1E00
6180
4080
8040
8040
8040
8040
8040
8040
4080
6180
1E00
ENDCHAR
STARTCHAR Otilde
ENCODING 213
SWIDTH 776 0
DWIDTH 12 0
BBX 10 15 1 0
BITMAP
1D00
2700
0000
1E00
6180
4080
8040
8040
8040
8040
8040
8040
4080
6180
1E00
ENDCHAR
STARTCHAR Odieresis
ENCODING 214
SWIDTH 776 0
DWIDTH 12 0
BBX 10 14 1 0
BITMAP
1200
0000
1E00
6180
4080
8040
8040
8040
8040
8040
8040
4080
6180
1E00
ENDCHAR
STARTCHAR multiply
ENCODING 215
SWIDTH 794 0
DWIDTH 13 0
BBX 9 9 2 0
BITMAP
8080
4100
2200
1400
0800
1400
2200
4100
8080
ENDCHAR
STARTCHAR Oslash
ENCODING 216
SWIDTH 776 0
DWIDTH 12 0
BBX 10 12 1 0
BITMAP
1F40
6180
4180
8240
8240
8440
8840
9040
9040
6080
6180
9E00
ENDCHAR
STARTCHAR Ugrave
ENCODING 217
SWIDTH 692 0
DWIDTH 11 0
BBX 7 16 2 0
BITMAP
20
10
08
00
82
82
82
82
82
82
82
82
82
82
44
38
ENDCHAR
STARTCHAR Uacute
ENCODING 218
SWIDTH 692 0
DWIDTH 11 0
BBX 7 16 2 0
BITMAP
08
18
10
00
82
82
82
82
82
82
82
82
82
82
44
38
ENDCHAR
STARTCHAR Ucircumflex
ENCODING 219
SWIDTH 692 0
DWIDTH 11 0
BBX 7 16 2 0
BITMAP
18
14
24
00
82
82
82
82
82
82
82
82
82
82
44
38
ENDCHAR
STARTCHAR Udieresis
ENCODING 220
SWIDTH 692 0
DWIDTH 11 0
BBX 7 14 2 0
BITMAP
24
00
82
82
82
82
82
82
82
82
82
82
44
38
ENDCHAR
STARTCHAR Yacute
ENCODING 221
SWIDTH 623 0
DWIDTH 10 0
BBX 9 16 0 0
BITMAP
0600
0400
0800
0000
8080
4100
4100
2200
1400
1400
0800
0800
0800
0800
0800
0800
ENDCHAR
STARTCHAR Thorn
ENCODING 222
SWIDTH 552 0
DWIDTH 9 0
BBX 6 12 2 0
BITMAP
80
80
F0
88
84
84
84
84
88
F0
80
80
ENDCHAR
STARTCHAR germandbls
ENCODING 223
SWIDTH 598 0
DWIDTH 10 0
BBX 7 12 2 0
BITMAP
70
88
88
88
90
A0
A0
98
84
82
A2
9C
ENDCHAR
STARTCHAR agrave
ENCODING 224
SWIDTH 552 0
DWIDTH 9 0
BBX 8 13 1 0
BITMAP
60
30
08
00
78
84
04
04
3C
44
84
8C
77
ENDCHAR
STARTCHAR aacute
ENCODING 225
SWIDTH 552 0
DWIDTH 9 0
BBX 8 13 1 0
BITMAP
08
18
10
00
78
84
04
04
3C
44
84
8C
77
ENDCHAR
STARTCHAR acircumflex
ENCODING 226
SWIDTH 552 0
DWIDTH 9 0
BBX 8 13 1 0
BITMAP
18
3C
24
00
78
84
04
04
3C
44
84
8C
77
ENDCHAR
STARTCHAR atilde
ENCODING 227
SWIDTH 552 0
DWIDTH 9 0
BBX 8 12 1 0
BITMAP
74
5C
00
78
84
04
04
3C
44
84
8C
77
ENDCHAR
STARTCHAR adieresis
ENCODING 228
SWIDTH 552 0
DWIDTH 9 0
BBX 8 11 1 0
BITMAP
24
00
78
84
04
04
3C
44
84
8C
77
ENDCHAR
STARTCHAR aring
ENCODING 229
SWIDTH 552 0
DWIDTH 9 0
BBX 8 14 1 0
BITMAP
38
28
28
38
00
78
84
04
04
3C
44
84
8C
77
ENDCHAR
STARTCHAR ae
ENCODING 230
SWIDTH 851 0
DWIDTH 14 0
BBX 11 9 1 0
BITMAP
7980
8640
0420
0420
3FE0
4400
8400
8A20
71C0
ENDCHAR
STARTCHAR ccedilla
ENCODING 231
SWIDTH 512 0
DWIDTH 8 0
BBX 5 12 1 -3
BITMAP
30
48
80
80
80
80
80
48
30
18
08
18
ENDCHAR
STARTCHAR egrave
ENCODING 232
SWIDTH 557 0
DWIDTH 9 0
BBX 6 13 1 0
BITMAP
C0
60
20
00
30
48
84
84
FC
80
80
44
38
ENDCHAR
STARTCHAR eacute
ENCODING 233
SWIDTH 557 0
DWIDTH 9 0
BBX 6 13 1 0
BITMAP
08
10
10
00
30
48
84
84
FC
80
80
44
38
ENDCHAR
STARTCHAR ecircumflex
ENCODING 234
SWIDTH 557 0
DWIDTH 9 0
BBX 6 13 1 0
BITMAP
30
38
48
00
30
48
84
84
FC
80
80
44
38
ENDCHAR
STARTCHAR edieresis
ENCODING 235
SWIDTH 557 0
DWIDTH 9 0
BBX 6 11 1 0
BITMAP
24
00
30
48
84
84
FC
80
80
44
38
ENDCHAR
STARTCHAR igrave
ENCODING 236
SWIDTH 289 0
DWIDTH 5 0
BBX 3 13 0 0
BITMAP
C0
60
20
00
20
20
20
20
20
20
20
20
20
ENDCHAR
STARTCHAR iacute
ENCODING 237
SWIDTH 289 0
DWIDTH 5 0
BBX 3 13 2 0
BITMAP
20
40
80
00
80
80
80
80
80
80
80
80
80
ENDCHAR
STARTCHAR icircumflex
ENCODING 238
SWIDTH 289 0
DWIDTH 5 0
BBX 4 13 1 0
BITMAP
60
E0
90
00
40
40
40
40
40
40
40
40
40
ENDCHAR
STARTCHAR idieresis
ENCODING 239
SWIDTH 289 0
DWIDTH 5 0
BBX 4 11 0 0
BITMAP
90
00
20
20
20
20
20
20
20
20
20
ENDCHAR
STARTCHAR eth
ENCODING 240
SWIDTH 602 0
DWIDTH 10 0
BBX 7 13 1 0
BITMAP
08
F0
38
48
3C
44
82
82
82
82
82
44
38
ENDCHAR
STARTCHAR ntilde
ENCODING 241
SWIDTH 620 0
DWIDTH 10 0
BBX 7 12 1 0
BITMAP
64
9C
00
9C
A2
C2
82
82
82
82
82
82
ENDCHAR
STARTCHAR ograve
ENCODING 242
SWIDTH 614 0
DWIDTH 10 0
BBX 7 13 1 0
BITMAP
40
20
10
00
38
44
82
82
82
82
82
44
38
ENDCHAR
STARTCHAR oacute
ENCODING 243
SWIDTH 614 0
DWIDTH 10 0
BBX 7 13 1 0
BITMAP
0C
08
10
00
38
44
82
82
82
82
82
44
38
ENDCHAR
STARTCHAR ocircumflex
ENCODING 244
SWIDTH 614 0
DWIDTH 10 0
BBX 7 13 1 0
BITMAP
10
28
44
00
38
44
82
82
82
82
82
44
38
ENDCHAR
STARTCHAR otilde
ENCODING 245
SWIDTH 614 0
DWIDTH 10 0
BBX 7 12 1 0
BITMAP
32
4C
00
38
44
82
82
82
82
82
44
38
ENDCHAR
STARTCHAR odieresis
ENCODING 246
SWIDTH 614 0
DWIDTH 10 0
BBX 7 11 1 0
BITMAP
24
00
38
44
82
82
82
82
82
44
38
ENDCHAR
STARTCHAR divide
ENCODING 247
SWIDTH 795 0
DWIDTH 13 0
BBX 9 7 2 0
BITMAP
0800
0000
0000
FF80
0000
0000
0800
ENDCHAR
STARTCHAR oslash
ENCODING 248
SWIDTH 614 0
DWIDTH 10 0
BBX 7 9 1 0
BITMAP
3A
44
8A
8A
92
A2
A2
44
B8
ENDCHAR
STARTCHAR ugrave
ENCODING 249
SWIDTH 620 0
DWIDTH 10 0
BBX 7 13 1 0
BITMAP
40
20
10
00
82
82
82
82
82
82
86
8A
72
ENDCHAR
STARTCHAR uacute
ENCODING 250
SWIDTH 620 0
DWIDTH 10 0
BBX 7 13 1 0
BITMAP
0C
08
10
00
82
82
82
82
82
82
86
8A
72
ENDCHAR
STARTCHAR ucircumflex
ENCODING 251
SWIDTH 620 0
DWIDTH 10 0
BBX 7 13 1 0
BITMAP
10
28
44
00
82
82
82
82
82
82
86
8A
72
ENDCHAR
STARTCHAR udieresis
ENCODING 252
SWIDTH 620 0
DWIDTH 10 0
BBX 7 11 1 0
BITMAP
24
00
82
82
82
82
82
82
86
8A
72
ENDCHAR
STARTCHAR yacute
ENCODING 253
SWIDTH 522 0
DWIDTH 8 0
BBX 7 16 0 -3
BITMAP
04
08
10
00
82
44
44
44
28
28
30
10
20
20
20
40
ENDCHAR
STARTCHAR thorn
ENCODING 254
SWIDTH 629 0
DWIDTH 10 0
BBX 7 15 1 -3
BITMAP
80
80
80
B8
C4
82
82
82
82
82
C4
B8
80
80
80
ENDCHAR
STARTCHAR ydieresis
ENCODING 255
SWIDTH 522 0
DWIDTH 8 0
BBX 7 14 0 -3
BITMAP
48
00
82
44
44
44
28
28
30
10
20
20
20
40
ENDCHAR
STARTCHAR Amacron
ENCODING 256
SWIDTH 689 0
DWIDTH 11 0
BBX 11 14 0 0
BITMAP
0F80
0000
0400
0A00
0A00
1100
1100
1100
2080
2080
7FC0
4040
4040
8020
ENDCHAR
STARTCHAR amacron
ENCODING 257
SWIDTH 552 0
DWIDTH 9 0
BBX 8 11 1 0
BITMAP
F8
00
78
84
04
04
3C
44
84
8C
77
ENDCHAR
STARTCHAR Abreve
ENCODING 258
SWIDTH 689 0
DWIDTH 11 0
BBX 11 15 0 0
BITMAP
0900
0F00
0000
0400
0A00
0A00
1100
1100
1100
2080
2080
7FC0
4040
4040
8020
ENDCHAR
STARTCHAR abreve
ENCODING 259
SWIDTH 552 0
DWIDTH 9 0
BBX 8 12 1 0
BITMAP
4C
38
00
78
84
04
04
3C
44
84
8C
77
ENDCHAR
STARTCHAR Aogonek
ENCODING 260
SWIDTH 689 0
DWIDTH 11 0
BBX 12 15 0 -3
BITMAP
0400
0A00
0A00
1100
1100
1100
2080
2080
7FC0
4040
4040
8020
0040
0040
0030
ENDCHAR
STARTCHAR aogonek
ENCODING 261
SWIDTH 552 0
DWIDTH 9 0
BBX 8 12 1 -3
BITMAP
78
84
04
04
3C
44
84
8C
77
04
04
07
ENDCHAR
STARTCHAR Cacute
ENCODING 262
SWIDTH 691 0
DWIDTH 11 0
BBX 9 16 1 0
BITMAP
0200
0400
0800
0000
1F00
6080
4000
8000
8000
8000
8000
8000
8000
4000
6080
1F00
ENDCHAR
STARTCHAR cacute
ENCODING 263
SWIDTH 512 0
DWIDTH 8 0
BBX 5 13 1 0
BITMAP
08
18
10
00
30
48
80
80
80
80
80
48
30
ENDCHAR
STARTCHAR Ccaron
ENCODING 268
SWIDTH 691 0
DWIDTH 11 0
BBX 9 16 1 0
BITMAP
1200
1E00
0C00
0000
1F00
6080
4000
8000
8000
8000
8000
8000
8000
4000
6080
1F00
ENDCHAR
STARTCHAR ccaron
ENCODING 269
SWIDTH 512 0
DWIDTH 8 0
BBX 6 13 1 0
BITMAP
44
28
30
00
30
48
80
80
80
80
80
48
30
ENDCHAR
STARTCHAR Dcaron
ENCODING 270
SWIDTH 749 0
DWIDTH 12 0
BBX 9 16 2 0
BITMAP
2200
1400
0800
0000
FC00
8300
8100
8080
8080
8080
8080
8080
8080
8100
8300
FC00
ENDCHAR
STARTCHAR dcaron
ENCODING 271
SWIDTH 719 0
DWIDTH 12 0
BBX 10 12 1 0
BITMAP
0340
0340
0340
3B00
7F00
C300
C300
C300
C300
C300
C700
7B00
ENDCHAR
STARTCHAR Dcroat
ENCODING 272
SWIDTH 757 0
DWIDTH 12 0
BBX 10 12 1 0
BITMAP
7E00
4180
4080
4040
4040
F840
4040
4040
4040
4080
4180
7E00
ENDCHAR
STARTCHAR dcroat
ENCODING 273
SWIDTH 629 0
DWIDTH 10 0
BBX 8 12 1 0
BITMAP
02
0F
02
3A
46
82
82
82
82
82
46
3A
ENDCHAR
STARTCHAR Emacron
ENCODING 274
SWIDTH 541 0
DWIDTH 9 0
BBX 6 14 2 0
BITMAP
7C
00
FC
80
80
80
80
F8
80
80
80
80
80
FC
ENDCHAR
STARTCHAR emacron
ENCODING 275
SWIDTH 557 0
DWIDTH 9 0
BBX 6 11 1 0
BITMAP
7C
00
30
48
84
84
FC
80
80
44
38
ENDCHAR
STARTCHAR Edotaccent
ENCODING 278
SWIDTH 541 0
DWIDTH 9 0
BBX 6 14 2 0
BITMAP
10
00
FC
80
80
80
80
F8
80
80
80
80
80
FC
ENDCHAR
STARTCHAR edotaccent
ENCODING 279
SWIDTH 557 0
DWIDTH 9 0
BBX 6 11 1 0
BITMAP
10
00
30
48
84
84
FC
80
80
44
38
ENDCHAR
STARTCHAR Eogonek
ENCODING 280
SWIDTH 541 0
DWIDTH 9 0
BBX 6 15 2 -3
BITMAP
FC
80
80
80
80
F8
80
80
80
80
80
FC
08
10
0C
ENDCHAR
STARTCHAR eogonek
ENCODING 281
SWIDTH 557 0
DWIDTH 9 0
BBX 6 12 1 -3
BITMAP
30
48
84
84
FC
80
80
44
38
08
10
0C
ENDCHAR
STARTCHAR Ecaron
ENCODING 282
SWIDTH 541 0
DWIDTH 9 0
BBX 6 16 2 0
BITMAP
44
28
10
00
FC
80
80
80
80
F8
80
80
80
80
80
FC
ENDCHAR
STARTCHAR ecaron
ENCODING 283
SWIDTH 557 0
DWIDTH 9 0
BBX 6 13 1 0
BITMAP
48
78
30
00
30
48
84
84
FC
80
80
44
38
ENDCHAR
STARTCHAR Gbreve
ENCODING 286
SWIDTH 722 0
DWIDTH 12 0
BBX 9 15 1 0
BITMAP
3200
1C00
0000
1F00
6080
4000
8000
8000
8000
8000
8080
8080
4080
6080
1F80
ENDCHAR
STARTCHAR gbreve
ENCODING 287
SWIDTH 623 0
DWIDTH 10 0
BBX 7 15 1 -3
BITMAP
44
38
00
3A
46
82
82
82
82
82
46
3A
02
84
78
ENDCHAR
STARTCHAR uni0122
ENCODING 290
SWIDTH 722 0
DWIDTH 12 0
BBX 9 15 1 -3
BITMAP
1F00
6080
4000
8000
8000
8000
8000
8080
8080
4080
6080
1F80
0600
0200
0E00
ENDCHAR
STARTCHAR uni0123
ENCODING 291
SWIDTH 623 0
DWIDTH 10 0
BBX 7 16 1 -3
BITMAP
08
18
10
00
3A
46
82
82
82
82
82
46
3A
02
84
78
ENDCHAR
STARTCHAR Itilde
ENCODING 296
SWIDTH 288 0
DWIDTH 5 0
BBX 6 15 -1 0
BITMAP
74
9C
00
10
10
10
10
10
10
10
10
10
10
10
10
ENDCHAR
STARTCHAR itilde
ENCODING 297
SWIDTH 289 0
DWIDTH 5 0
BBX 6 12 -1 0
BITMAP
74
9C
00
10
10
10
10
10
10
10
10
10
ENDCHAR
STARTCHAR Imacron
ENCODING 298
SWIDTH 288 0
DWIDTH 5 0
BBX 5 14 0 0
BITMAP
F8
00
20
20
20
20
20
20
20
20
20
20
20
20
ENDCHAR
STARTCHAR imacron
ENCODING 299
SWIDTH 289 0
DWIDTH 5 0
BBX 5 11 0 0
BITMAP
F8
00
20
20
20
20
20
20
20
20
20
ENDCHAR
STARTCHAR Iogonek
ENCODING 302
SWIDTH 288 0
DWIDTH 5 0
BBX 3 15 2 -3
BITMAP
80
80
80
80
80
80
80
80
80
80
80
80
80
80
60
ENDCHAR
STARTCHAR iogonek
ENCODING 303
SWIDTH 289 0
DWIDTH 5 0
BBX 3 15 2 -3
BITMAP
80
00
00
80
80
80
80
80
80
80
80
80
80
80
60
ENDCHAR
STARTCHAR Idotaccent
ENCODING 304
SWIDTH 288 0
DWIDTH 5 0
BBX 1 14 2 0
BITMAP
80
00
80
80
80
80
80
80
80
80
80
80
80
80
ENDCHAR
STARTCHAR dotlessi
ENCODING 305
SWIDTH 289 0
DWIDTH 5 0
BBX 1 9 2 0
BITMAP
80
80
80
80
80
80
80
80
80
ENDCHAR
STARTCHAR IJ
ENCODING 306
SWIDTH 596 0
DWIDTH 10 0
BBX 6 14 2 -2
BITMAP
84
84
84
84
84
84
84
84
84
84
84
88
08
30
ENDCHAR
STARTCHAR ij
ENCODING 307
SWIDTH 579 0
DWIDTH 9 0
BBX 5 15 2 -3
BITMAP
88
00
00
88
88
88
88
88
88
88
88
88
08
08
70
ENDCHAR
STARTCHAR Jcircumflex
ENCODING 308
SWIDTH 288 0
DWIDTH 5 0
BBX 1 12 2 0
BITMAP
80
80
80
80
80
80
80
80
80
80
80
80
ENDCHAR
STARTCHAR jcircumflex
ENCODING 309
SWIDTH 289 0
DWIDTH 5 0
BBX 1 12 2 0
BITMAP
80
00
00
80
80
80
80
80
80
80
80
80
ENDCHAR
STARTCHAR uni0136
ENCODING 310
SWIDTH 652 0
DWIDTH 10 0
BBX 8 15 2 -3
BITMAP
82
84
88
90
A0
C0
A0
90
88
84
82
81
C0
20
C0
ENDCHAR
STARTCHAR uni0137
ENCODING 311
SWIDTH 584 0
DWIDTH 9 0
BBX 8 15 0 -3
BITMAP
40
40
40
42
44
48
50
70
48
44
42
41
40
20
C0
ENDCHAR
STARTCHAR Lacute
ENCODING 313
SWIDTH 533 0
DWIDTH 9 0
BBX 7 16 2 0
BITMAP
20
60
40
00
80
80
80
80
80
80
80
80
80
80
80
FE
ENDCHAR
STARTCHAR lacute
ENCODING 314
SWIDTH 289 0
DWIDTH 5 0
BBX 3 16 2 0
BITMAP
20
40
80
00
80
80
80
80
80
80
80
80
80
80
80
80
ENDCHAR
STARTCHAR uni013B
ENCODING 315
SWIDTH 533 0
DWIDTH 9 0
BBX 7 15 2 -3
BITMAP
80
80
80
80
80
80
80
80
80
80
80
FE
18
08
18
ENDCHAR
STARTCHAR uni013C
ENCODING 316
SWIDTH 289 0
DWIDTH 5 0
BBX 3 15 1 -3
BITMAP
40
40
40
40
40
40
40
40
40
40
40
40
40
20
C0
ENDCHAR
STARTCHAR Lcaron
ENCODING 317
SWIDTH 533 0
DWIDTH 9 0
BBX 7 12 1 0
BITMAP
CC
CC
C4
C8
C0
C0
C0
C0
C0
C0
C0
FE
ENDCHAR
STARTCHAR lcaron
ENCODING 318
SWIDTH 373 0
DWIDTH 6 0
BBX 4 12 2 0
BITMAP
B0
90
90
80
80
80
80
80
80
80
80
80
ENDCHAR
STARTCHAR Ldot
ENCODING 319
SWIDTH 533 0
DWIDTH 9 0
BBX 7 12 2 0
BITMAP
80
80
80
80
80
80
84
80
80
80
80
FE
ENDCHAR
STARTCHAR ldot
ENCODING 320
SWIDTH 385 0
DWIDTH 6 0
BBX 3 12 2 0
BITMAP
80
80
80
80
80
80
A0
80
80
80
80
80
ENDCHAR
STARTCHAR Lslash
ENCODING 321
SWIDTH 548 0
DWIDTH 9 0
BBX 9 12 0 0
BITMAP
2000
2000
2000
2800
3000
6000
A000
2000
2000
2000
2000
3F80
ENDCHAR
STARTCHAR lslash
ENCODING 322
SWIDTH 328 0
DWIDTH 5 0
BBX 5 12 0 0
BITMAP
20
20
20
28
30
60
A0
20
20
20
20
20
ENDCHAR
STARTCHAR Nacute
ENCODING 323
SWIDTH 738 0
DWIDTH 12 0
BBX 8 16 2 0
BITMAP
06
04
08
00
81
C1
A1
A1
91
91
89
89
85
85
83
81
ENDCHAR
STARTCHAR nacute
ENCODING 324
SWIDTH 620 0
DWIDTH 10 0
BBX 7 13 1 0
BITMAP
0C
08
10
00
9C
A2
C2
82
82
82
82
82
82
ENDCHAR
STARTCHAR uni0145
ENCODING 325
SWIDTH 738 0
DWIDTH 12 0
BBX 8 15 2 -3
BITMAP
81
C1
A1
A1
91
91
89
89
85
85
83
81
C0
20
C0
ENDCHAR
STARTCHAR uni0146
ENCODING 326
SWIDTH 620 0
DWIDTH 10 0
BBX 8 12 0 -3
BITMAP
4E
51
61
41
41
41
41
41
41
40
20
C0
ENDCHAR
STARTCHAR Ncaron
ENCODING 327
SWIDTH 738 0
DWIDTH 12 0
BBX 8 16 2 0
BITMAP
22
14
08
00
81
C1
A1
A1
91
91
89
89
85
85
83
81
ENDCHAR
STARTCHAR ncaron
ENCODING 328
SWIDTH 620 0
DWIDTH 10 0
BBX 7 13 1 0
BITMAP
44
28
18
00
9C
A2
C2
82
82
82
82
82
82
ENDCHAR
STARTCHAR napostrophe
ENCODING 329
SWIDTH 620 0
DWIDTH 10 0
BBX 6 14 2 0
BITMAP
80
80
80
80
00
18
BC
C4
84
84
84
84
84
84
ENDCHAR
STARTCHAR Omacron
ENCODING 332
SWIDTH 776 0
DWIDTH 12 0
BBX 10 14 1 0
BITMAP
3E00
0000
1E00
6180
4080
8040
8040
8040
8040
8040
8040
4080
6180
1E00
ENDCHAR
STARTCHAR omacron
ENCODING 333
SWIDTH 614 0
DWIDTH 10 0
BBX 7 11 1 0
BITMAP
7C
00
38
44
82
82
82
82
82
44
38
ENDCHAR
STARTCHAR Ohungarumlaut
ENCODING 336
SWIDTH 776 0
DWIDTH 12 0
BBX 10 16 1 0
BITMAP
0480
0900
0900
0000
1E00
6180
4080
8040
8040
8040
8040
8040
8040
4080
6180
1E00
ENDCHAR
STARTCHAR ohungarumlaut
ENCODING 337
SWIDTH 614 0
DWIDTH 10 0
BBX 8 13 1 0
BITMAP
09
12
24
00
38
44
82
82
82
82
82
44
38
ENDCHAR
STARTCHAR OE.dup1
ENCODING 338
SWIDTH 1000 0
DWIDTH 16 0
BBX 13 12 2 0
BITMAP
1DF8
6300
4100
8100
8100
81F0
8100
8100
8100
4100
6300
1DF8
ENDCHAR
STARTCHAR oe.dup2
ENCODING 339
SWIDTH 928 0
DWIDTH 15 0
BBX 12 9 1 0
BITMAP
38C0
4520
8210
8210
83F0
8200
8200
4510
38E0
ENDCHAR
STARTCHAR Racute
ENCODING 340
SWIDTH 632 0
DWIDTH 10 0
BBX 7 16 2 0
BITMAP
0C
08
10
00
F8
84
84
84
84
88
F0
A0
90
88
84
82
ENDCHAR
STARTCHAR racute
ENCODING 341
SWIDTH 409 0
DWIDTH 7 0
BBX 5 13 1 0
BITMAP
18
30
20
00
98
A0
C0
80
80
80
80
80
80
ENDCHAR
STARTCHAR uni0156
ENCODING 342
SWIDTH 632 0
DWIDTH 10 0
BBX 7 15 2 -3
BITMAP
F8
84
84
84
84
88
F0
A0
90
88
84
82
C0
20
C0
ENDCHAR
STARTCHAR uni0157
ENCODING 343
SWIDTH 409 0
DWIDTH 7 0
BBX 6 12 0 -3
BITMAP
4C
50
60
40
40
40
40
40
40
40
20
C0
ENDCHAR
STARTCHAR Rcaron
ENCODING 344
SWIDTH 632 0
DWIDTH 10 0
BBX 7 16 2 0
BITMAP
48
28
30
00
F8
84
84
84
84
88
F0
A0
90
88
84
82
ENDCHAR
STARTCHAR rcaron
ENCODING 345
SWIDTH 409 0
DWIDTH 7 0
BBX 5 13 1 0
BITMAP
88
50
20
00
98
A0
C0
80
80
80
80
80
80
ENDCHAR
STARTCHAR Sacute
ENCODING 346
SWIDTH 538 0
DWIDTH 9 0
BBX 7 16 1 0
BITMAP
04
0C
08
00
38
44
80
80
40
30
0C
02
02
02
84
78
ENDCHAR
STARTCHAR sacute
ENCODING 347
SWIDTH 509 0
DWIDTH 8 0
BBX 6 13 1 0
BITMAP
0C
08
10
00
78
84
80
60
18
04
04
84
78
ENDCHAR
STARTCHAR Scedilla
ENCODING 350
SWIDTH 538 0
DWIDTH 9 0
BBX 7 15 1 -3
BITMAP
3C
EC
80
C0
C0
70
3C
0C
06
06
84
FC
00
10
18
ENDCHAR
STARTCHAR scedilla
ENCODING 351
SWIDTH 509 0
DWIDTH 8 0
BBX 6 12 1 -3
BITMAP
38
68
C0
C0
78
1C
0C
8C
F8
00
30
30
ENDCHAR
STARTCHAR Scaron.dup3
ENCODING 352
SWIDTH 538 0
DWIDTH 9 0
BBX 7 16 1 0
BITMAP
24
1C
18
00
38
44
80
80
40
30
0C
02
02
02
84
78
ENDCHAR
STARTCHAR scaron.dup4
ENCODING 353
SWIDTH 509 0
DWIDTH 8 0
BBX 6 13 1 0
BITMAP
64
28
18
00
78
84
80
60
18
04
04
84
78
ENDCHAR
STARTCHAR uni0162
ENCODING 354
SWIDTH 632 0
DWIDTH 10 0
BBX 10 15 0 -3
BITMAP
FFC0
FFC0
0C00
0C00
0C00
0C00
0C00
0C00
0C00
0C00
0C00
0C00
0000
0400
0E00
ENDCHAR
STARTCHAR uni0163
ENCODING 355
SWIDTH 374 0
DWIDTH 6 0
BBX 4 13 1 -3
BITMAP
40
40
F0
40
40
40
40
40
40
70
00
30
30
ENDCHAR
STARTCHAR Tcaron
ENCODING 356
SWIDTH 632 0
DWIDTH 10 0
BBX 10 16 0 0
BITMAP
1900
0A00
0600
0000
FFC0
0800
0800
0800
0800
0800
0800
0800
0800
0800
0800
0800
ENDCHAR
STARTCHAR tcaron
ENCODING 357
SWIDTH 377 0
DWIDTH 6 0
BBX 5 13 1 0
BITMAP
18
08
08
40
40
F0
40
40
40
40
40
40
70
ENDCHAR
STARTCHAR Utilde
ENCODING 360
SWIDTH 692 0
DWIDTH 11 0
BBX 7 15 2 0
BITMAP
72
4C
00
82
82
82
82
82
82
82
82
82
82
44
38
ENDCHAR
STARTCHAR utilde
ENCODING 361
SWIDTH 620 0
DWIDTH 10 0
BBX 7 12 1 0
BITMAP
32
4C
00
82
82
82
82
82
82
86
8A
72
ENDCHAR
STARTCHAR Umacron
ENCODING 362
SWIDTH 692 0
DWIDTH 11 0
BBX 7 14 2 0
BITMAP
3E
00
82
82
82
82
82
82
82
82
82
82
44
38
ENDCHAR
STARTCHAR umacron
ENCODING 363
SWIDTH 620 0
DWIDTH 10 0
BBX 7 11 1 0
BITMAP
7C
00
82
82
82
82
82
82
86
8A
72
ENDCHAR
STARTCHAR Uring
ENCODING 366
SWIDTH 692 0
DWIDTH 11 0
BBX 7 17 2 0
BITMAP
38
24
24
38
00
82
82
82
82
82
82
82
82
82
82
44
38
ENDCHAR
STARTCHAR uring
ENCODING 367
SWIDTH 620 0
DWIDTH 10 0
BBX 7 14 1 0
BITMAP
18
24
24
18
00
82
82
82
82
82
82
86
8A
72
ENDCHAR
STARTCHAR Uhungarumlaut
ENCODING 368
SWIDTH 692 0
DWIDTH 11 0
BBX 8 16 2 0
BITMAP
09
12
24
00
82
82
82
82
82
82
82
82
82
82
44
38
ENDCHAR
STARTCHAR uhungarumlaut
ENCODING 369
SWIDTH 620 0
DWIDTH 10 0
BBX 8 13 1 0
BITMAP
09
12
24
00
82
82
82
82
82
82
86
8A
72
ENDCHAR
STARTCHAR Uogonek
ENCODING 370
SWIDTH 692 0
DWIDTH 11 0
BBX 7 15 2 -3
BITMAP
82
82
82
82
82
82
82
82
82
82
44
38
08
10
0C
ENDCHAR
STARTCHAR uogonek
ENCODING 371
SWIDTH 620 0
DWIDTH 10 0
BBX 8 12 1 -3
BITMAP
82
82
82
82
82
82
86
8A
72
04
04
07
ENDCHAR
STARTCHAR Ydieresis.dup5
ENCODING 376
SWIDTH 623 0
DWIDTH 10 0
BBX 9 14 0 0
BITMAP
1200
0000
8080
4100
4100
2200
1400
1400
0800
0800
0800
0800
0800
0800
ENDCHAR
STARTCHAR Zacute
ENCODING 377
SWIDTH 604 0
DWIDTH 10 0
BBX 8 16 1 0
BITMAP
06
04
08
00
FF
01
02
04
04
08
10
20
20
40
80
FF
ENDCHAR
STARTCHAR zacute
ENCODING 378
SWIDTH 573 0
DWIDTH 9 0
BBX 7 13 1 0
BITMAP
04
08
18
00
FE
02
04
08
10
20
40
80
FE
ENDCHAR
STARTCHAR Zdotaccent
ENCODING 379
SWIDTH 604 0
DWIDTH 10 0
BBX 8 14 1 0
BITMAP
08
00
FF
01
02
04
04
08
10
20
20
40
80
FF
ENDCHAR
STARTCHAR zdotaccent
ENCODING 380
SWIDTH 573 0
DWIDTH 9 0
BBX 7 11 1 0
BITMAP
08
00
FE
02
04
08
10
20
40
80
FE
ENDCHAR
STARTCHAR Zcaron
ENCODING 381
SWIDTH 604 0
DWIDTH 10 0
BBX 8 16 1 0
BITMAP
12
14
0C
00
FF
01
02
04
04
08
10
20
20
40
80
FF
ENDCHAR
STARTCHAR zcaron
ENCODING 382
SWIDTH 573 0
DWIDTH 9 0
BBX 7 13 1 0
BITMAP
24
1C
18
00
FE
02
04
08
10
20
40
80
FE
ENDCHAR
STARTCHAR florin.dup6
ENCODING 402
SWIDTH 632 0
DWIDTH 10 0
BBX 8 14 2 -2
BITMAP
0F
10
20
20
20
F0
40
40
40
40
40
80
80
80
ENDCHAR
STARTCHAR Ohorn
ENCODING 416
SWIDTH 804 0
DWIDTH 13 0
BBX 12 12 1 0
BITMAP
1E10
6190
40E0
8040
8040
8040
8040
8040
8040
4080
6180
1E00
ENDCHAR
STARTCHAR ohorn
ENCODING 417
SWIDTH 674 0
DWIDTH 11 0
BBX 10 10 1 0
BITMAP
0040
3C40
4380
8100
8100
8100
8100
8100
4200
3C00
ENDCHAR
STARTCHAR Uhorn
ENCODING 431
SWIDTH 756 0
DWIDTH 12 0
BBX 10 12 2 0
BITMAP
8140
8140
8180
8100
8100
8100
8100
8100
8100
8100
4200
3C00
ENDCHAR
STARTCHAR uhorn
ENCODING 432
SWIDTH 674 0
DWIDTH 11 0
BBX 10 10 1 0
BITMAP
0040
8240
8240
8380
8200
8200
8200
8600
8A00
7200
ENDCHAR
STARTCHAR circumflex.dup7
ENCODING 710
SWIDTH 614 0
DWIDTH 10 0
BBX 5 3 2 10
BITMAP
20
50
88
ENDCHAR
STARTCHAR caron
ENCODING 711
SWIDTH 614 0
DWIDTH 10 0
BBX 5 3 2 10
BITMAP
88
50
20
ENDCHAR
STARTCHAR macron
ENCODING 713
SWIDTH 614 0
DWIDTH 10 0
BBX 5 1 2 10
BITMAP
F8
ENDCHAR
STARTCHAR breve
ENCODING 728
SWIDTH 614 0
DWIDTH 10 0
BBX 5 2 2 10
BITMAP
88
70
ENDCHAR
STARTCHAR dotaccent
ENCODING 729
SWIDTH 614 0
DWIDTH 10 0
BBX 1 1 4 10
BITMAP
80
ENDCHAR
STARTCHAR ring
ENCODING 730
SWIDTH 614 0
DWIDTH 10 0
BBX 4 4 3 10
BITMAP
60
90
90
60
ENDCHAR
STARTCHAR ogonek
ENCODING 731
SWIDTH 614 0
DWIDTH 10 0
BBX 3 3 4 -3
BITMAP
80
80
60
ENDCHAR
STARTCHAR tilde.dup8
ENCODING 732
SWIDTH 614 0
DWIDTH 10 0
BBX 6 2 2 10
BITMAP
64
98
ENDCHAR
STARTCHAR hungarumlaut
ENCODING 733
SWIDTH 614 0
DWIDTH 10 0
BBX 6 3 2 10
BITMAP
24
48
90
ENDCHAR
STARTCHAR gravecomb
ENCODING 768
SWIDTH 613 0
DWIDTH 10 0
BBX 3 3 3 10
BITMAP
80
40
20
ENDCHAR
STARTCHAR acutecomb
ENCODING 769
SWIDTH 613 0
DWIDTH 10 0
BBX 3 3 4 10
BITMAP
60
40
80
ENDCHAR
STARTCHAR uni0302
ENCODING 770
SWIDTH 613 0
DWIDTH 10 0
BBX 5 3 2 10
BITMAP
20
50
88
ENDCHAR
STARTCHAR tildecomb
ENCODING 771
SWIDTH 613 0
DWIDTH 10 0
BBX 6 2 2 10
BITMAP
64
98
ENDCHAR
STARTCHAR hookabovecomb
ENCODING 777
SWIDTH 614 0
DWIDTH 10 0
BBX 3 3 3 10
BITMAP
C0
20
40
ENDCHAR
STARTCHAR dotbelowcomb
ENCODING 803
SWIDTH 614 0
DWIDTH 10 0
BBX 1 1 4 -3
BITMAP
80
ENDCHAR
STARTCHAR tonos
ENCODING 900
SWIDTH 614 0
DWIDTH 10 0
BBX 1 3 4 10
BITMAP
80
80
80
ENDCHAR
STARTCHAR dieresistonos
ENCODING 901
SWIDTH 614 0
DWIDTH 10 0
BBX 5 3 2 10
BITMAP
20
20
A8
ENDCHAR
STARTCHAR Alphatonos
ENCODING 902
SWIDTH 689 0
DWIDTH 11 0
BBX 11 12 0 0
BITMAP
4400
4A00
4A00
1100
1100
1100
2080
2080
7FC0
4040
4040
8020
ENDCHAR
STARTCHAR anoteleia
ENCODING 903
SWIDTH 316 0
DWIDTH 5 0
BBX 1 1 2 4
BITMAP
80
ENDCHAR
STARTCHAR Epsilontonos
ENCODING 904
SWIDTH 647 0
DWIDTH 10 0
BBX 9 12 1 0
BITMAP
9F80
9000
9000
1000
1000
1F00
1000
1000
1000
1000
1000
1F80
ENDCHAR
STARTCHAR Etatonos
ENCODING 905
SWIDTH 840 0
DWIDTH 13 0
BBX 11 12 1 0
BITMAP
9020
9020
9020
1020
1020
1FE0
1020
1020
1020
1020
1020
1020
ENDCHAR
STARTCHAR Iotatonos
ENCODING 906
SWIDTH 394 0
DWIDTH 6 0
BBX 4 12 1 0
BITMAP
90
90
90
10
10
10
10
10
10
10
10
10
ENDCHAR
STARTCHAR Omicrontonos
ENCODING 908
SWIDTH 862 0
DWIDTH 14 0
BBX 11 12 1 0
BITMAP
8F80
90C0
A060
2020
4020
4020
4020
6020
2020
2060
10C0
0F80
ENDCHAR
STARTCHAR Upsilontonos
ENCODING 910
SWIDTH 818 0
DWIDTH 13 0
BBX 11 12 1 0
BITMAP
B020
9840
8C80
0500
0500
0200
0200
0200
0200
0200
0200
0200
ENDCHAR
STARTCHAR Omegatonos
ENCODING 911
SWIDTH 872 0
DWIDTH 14 0
BBX 13 12 0 0
BITMAP
C3C0
CE60
9830
1018
3018
3018
3018
1018
1810
0830
0460
3E78
ENDCHAR
STARTCHAR iotadieresistonos
ENCODING 912
SWIDTH 367 0
DWIDTH 6 0
BBX 6 13 0 0
BITMAP
20
20
A8
00
20
20
20
20
20
20
20
20
1C
ENDCHAR
STARTCHAR Alpha
ENCODING 913
SWIDTH 689 0
DWIDTH 11 0
BBX 11 12 0 0
BITMAP
0400
0A00
0A00
1100
1100
1100
2080
2080
7FC0
4040
4040
8020
ENDCHAR
STARTCHAR Beta
ENCODING 914
SWIDTH 575 0
DWIDTH 9 0
BBX 6 12 2 0
BITMAP
F8
84
84
84
88
F0
88
84
84
84
84
F8
ENDCHAR
STARTCHAR Gamma
ENCODING 915
SWIDTH 509 0
DWIDTH 8 0
BBX 6 12 2 0
BITMAP
FC
80
80
80
80
80
80
80
80
80
80
80
ENDCHAR
STARTCHAR uni0394
ENCODING 916
SWIDTH 700 0
DWIDTH 11 0
BBX 11 12 0 0
BITMAP
0400
0E00
0A00
1B00
1300
1180
3180
20C0
60C0
4040
C060
FFE0
ENDCHAR
STARTCHAR Epsilon
ENCODING 917
SWIDTH 541 0
DWIDTH 9 0
BBX 6 12 2 0
BITMAP
FC
80
80
80
80
F8
80
80
80
80
80
FC
ENDCHAR
STARTCHAR Zeta
ENCODING 918
SWIDTH 604 0
DWIDTH 10 0
BBX 8 12 1 0
BITMAP
FF
01
02
04
04
08
10
20
20
40
80
FF
ENDCHAR
STARTCHAR Eta
ENCODING 919
SWIDTH 734 0
DWIDTH 12 0
BBX 8 12 2 0
BITMAP
81
81
81
81
81
FF
81
81
81
81
81
81
ENDCHAR
STARTCHAR Theta
ENCODING 920
SWIDTH 777 0
DWIDTH 12 0
BBX 10 12 1 0
BITMAP
1E00
6180
4080
8040
8040
9E40
8040
8040
8040
4080
6180
1E00
ENDCHAR
STARTCHAR Iota
ENCODING 921
SWIDTH 288 0
DWIDTH 5 0
BBX 1 12 2 0
BITMAP
80
80
80
80
80
80
80
80
80
80
80
80
ENDCHAR
STARTCHAR Kappa
ENCODING 922
SWIDTH 652 0
DWIDTH 10 0
BBX 8 12 2 0
BITMAP
82
84
88
90
A0
C0
A0
90
88
84
82
81
ENDCHAR
STARTCHAR Lambda
ENCODING 923
SWIDTH 650 0
DWIDTH 10 0
BBX 9 12 0 0
BITMAP
0800
1400
1400
1400
2200
2200
2200
4100
4100
4100
8080
8080
ENDCHAR
STARTCHAR Mu
ENCODING 924
SWIDTH 860 0
DWIDTH 14 0
BBX 11 12 1 0
BITMAP
8020
C060
C060
A0A0
A0A0
A0A0
9120
9120
8A20
8A20
8420
8020
ENDCHAR
STARTCHAR Nu
ENCODING 925
SWIDTH 738 0
DWIDTH 12 0
BBX 8 12 2 0
BITMAP
81
C1
A1
A1
91
91
89
89
85
85
83
81
ENDCHAR
STARTCHAR Xi
ENCODING 926
SWIDTH 620 0
DWIDTH 10 0
BBX 8 12 1 0
BITMAP
FF
00
00
00
00
7E
00
00
00
00
00
FF
ENDCHAR
STARTCHAR Omicron
ENCODING 927
SWIDTH 776 0
DWIDTH 12 0
BBX 10 12 1 0
BITMAP
1E00
6180
4080
8040
8040
8040
8040
8040
8040
4080
6180
1E00
ENDCHAR
STARTCHAR Pi
ENCODING 928
SWIDTH 735 0
DWIDTH 12 0
BBX 8 12 2 0
BITMAP
FF
81
81
81
81
81
81
81
81
81
81
81
ENDCHAR
STARTCHAR Rho
ENCODING 929
SWIDTH 553 0
DWIDTH 9 0
BBX 6 12 2 0
BITMAP
F8
84
84
84
84
88
F0
80
80
80
80
80
ENDCHAR
STARTCHAR Sigma
ENCODING 931
SWIDTH 593 0
DWIDTH 10 0
BBX 9 12 0 0
BITMAP
FF80
4000
2000
1000
0800
0400
0800
1000
2000
4000
8000
FF80
ENDCHAR
STARTCHAR Tau
ENCODING 932
SWIDTH 631 0
DWIDTH 10 0
BBX 10 12 0 0
BITMAP
FFC0
0800
0800
0800
0800
0800
0800
0800
0800
0800
0800
0800
ENDCHAR
STARTCHAR Upsilon
ENCODING 933
SWIDTH 638 0
DWIDTH 10 0
BBX 9 12 0 0
BITMAP
C080
2100
1200
1400
1400
0800
0800
0800
0800
0800
0800
0800
ENDCHAR
STARTCHAR Phi
ENCODING 934
SWIDTH 704 0
DWIDTH 11 0
BBX 9 12 1 0
BITMAP
0800
0800
3E00
4900
8880
8880
8880
8880
4900
3E00
0800
0800
ENDCHAR
STARTCHAR Chi
ENCODING 935
SWIDTH 625 0
DWIDTH 10 0
BBX 10 12 0 0
BITMAP
8040
4080
2100
1200
1200
0C00
0C00
1200
1200
2100
4080
8040
ENDCHAR
STARTCHAR Psi
ENCODING 936
SWIDTH 722 0
DWIDTH 12 0
BBX 11 12 0 0
BITMAP
8420
4440
4440
2480
2480
2480
1F00
0400
0400
0400
0400
0400
ENDCHAR
STARTCHAR uni03A9
ENCODING 937
SWIDTH 794 0
DWIDTH 13 0
BBX 11 12 1 0
BITMAP
1E00
3180
60C0
C040
C060
C060
C060
C040
40C0
6080
3100
F3E0
ENDCHAR
STARTCHAR Iotadieresis
ENCODING 938
SWIDTH 288 0
DWIDTH 5 0
BBX 4 14 0 0
BITMAP
90
00
20
20
20
20
20
20
20
20
20
20
20
20
ENDCHAR
STARTCHAR Upsilondieresis
ENCODING 939
SWIDTH 638 0
DWIDTH 10 0
BBX 9 14 0 0
BITMAP
2400
0000
C080
2100
1200
1400
1400
0800
0800
0800
0800
0800
0800
0800
ENDCHAR
STARTCHAR alphatonos
ENCODING 940
SWIDTH 693 0
DWIDTH 11 0
BBX 9 13 1 0
BITMAP
0800
0800
0800
0000
3080
4900
8500
8200
8200
8200
8600
4900
3100
ENDCHAR
STARTCHAR epsilontonos
ENCODING 941
SWIDTH 527 0
DWIDTH 8 0
BBX 5 13 1 0
BITMAP
10
10
10
00
30
48
80
80
F0
80
80
48
30
ENDCHAR
STARTCHAR etatonos
ENCODING 942
SWIDTH 622 0
DWIDTH 10 0
BBX 8 16 0 -3
BITMAP
08
08
08
00
8E
51
61
41
41
41
41
41
41
01
01
01
ENDCHAR
STARTCHAR iotatonos
ENCODING 943
SWIDTH 367 0
DWIDTH 6 0
BBX 4 13 2 0
BITMAP
80
80
80
00
80
80
80
80
80
80
80
80
70
ENDCHAR
STARTCHAR upsilondieresistonos
ENCODING 944
SWIDTH 602 0
DWIDTH 10 0
BBX 7 13 1 0
BITMAP
10
10
54
00
84
82
82
82
82
82
82
44
38
ENDCHAR
STARTCHAR alpha
ENCODING 945
SWIDTH 693 0
DWIDTH 11 0
BBX 9 9 1 0
BITMAP
3080
4900
8500
8200
8200
8200
8600
4900
3100
ENDCHAR
STARTCHAR beta
ENCODING 946
SWIDTH 602 0
DWIDTH 10 0
BBX 7 15 1 -3
BITMAP
38
44
84
84
88
B8
84
82
82
82
C4
B8
80
80
80
ENDCHAR
STARTCHAR gamma
ENCODING 947
SWIDTH 559 0
DWIDTH 9 0
BBX 9 12 0 -3
BITMAP
8080
4100
2200
2200
1400
1400
0800
0800
0800
0800
0800
0800
ENDCHAR
STARTCHAR delta
ENCODING 948
SWIDTH 590 0
DWIDTH 9 0
BBX 7 12 1 0
BITMAP
78
80
40
20
38
44
82
82
82
82
44
38
ENDCHAR
STARTCHAR epsilon
ENCODING 949
SWIDTH 527 0
DWIDTH 8 0
BBX 5 9 1 0
BITMAP
30
48
80
80
F0
80
80
48
30
ENDCHAR
STARTCHAR zeta
ENCODING 950
SWIDTH 629 0
DWIDTH 10 0
BBX 9 15 0 -3
BITMAP
0180
8700
7C00
1000
2000
2000
4000
4000
4000
4000
2000
1F00
0080
0080
0F00
ENDCHAR
STARTCHAR eta
ENCODING 951
SWIDTH 622 0
DWIDTH 10 0
BBX 8 12 0 -3
BITMAP
8E
51
61
41
41
41
41
41
41
01
01
01
ENDCHAR
STARTCHAR theta
ENCODING 952
SWIDTH 614 0
DWIDTH 10 0
BBX 7 12 1 0
BITMAP
38
44
82
82
82
FE
82
82
82
82
44
38
ENDCHAR
STARTCHAR iota
ENCODING 953
SWIDTH 367 0
DWIDTH 6 0
BBX 4 9 2 0
BITMAP
80
80
80
80
80
80
80
80
70
ENDCHAR
STARTCHAR kappa
ENCODING 954
SWIDTH 545 0
DWIDTH 9 0
BBX 7 9 1 0
BITMAP
86
88
90
A0
C0
A0
90
88
84
ENDCHAR
STARTCHAR lambda
ENCODING 955
SWIDTH 583 0
DWIDTH 9 0
BBX 9 12 0 0
BITMAP
6000
1000
1000
0800
0800
0C00
0C00
1200
2200
2100
4100
8080
ENDCHAR
STARTCHAR uni03BC
ENCODING 956
SWIDTH 626 0
DWIDTH 10 0
BBX 7 12 1 -3
BITMAP
82
82
82
82
82
82
86
8A
F2
80
80
80
ENDCHAR
STARTCHAR nu
ENCODING 957
SWIDTH 548 0
DWIDTH 9 0
BBX 8 9 0 0
BITMAP
81
41
41
22
22
14
14
08
08
ENDCHAR
STARTCHAR xi
ENCODING 958
SWIDTH 575 0
DWIDTH 9 0
BBX 9 15 0 -3
BITMAP
8700
7E00
2000
2000
1000
0F00
3000
4000
4000
4000
2000
1F00
0080
0080
0F00
ENDCHAR
STARTCHAR omicron
ENCODING 959
SWIDTH 613 0
DWIDTH 10 0
BBX 7 9 1 0
BITMAP
38
44
82
82
82
82
82
44
38
ENDCHAR
STARTCHAR pi
ENCODING 960
SWIDTH 780 0
DWIDTH 12 0
BBX 10 9 1 0
BITMAP
7FC0
A100
2100
2100
2100
2100
2100
2100
2080
ENDCHAR
STARTCHAR rho
ENCODING 961
SWIDTH 608 0
DWIDTH 10 0
BBX 7 12 1 -3
BITMAP
38
44
82
82
82
82
82
C4
B8
80
80
80
ENDCHAR
STARTCHAR sigma1
ENCODING 962
SWIDTH 571 0
DWIDTH 9 0
BBX 8 12 1 -3
BITMAP
1E
20
40
80
80
80
80
40
3E
01
01
1E
ENDCHAR
STARTCHAR sigma
ENCODING 963
SWIDTH 679 0
DWIDTH 11 0
BBX 10 9 1 0
BITMAP
3FC0
4200
8100
8100
8100
8100
8100
4200
3C00
ENDCHAR
STARTCHAR tau
ENCODING 964
SWIDTH 539 0
DWIDTH 9 0
BBX 8 9 1 0
BITMAP
FF
10
10
10
10
10
10
10
08
ENDCHAR
STARTCHAR upsilon
ENCODING 965
SWIDTH 602 0
DWIDTH 10 0
BBX 7 9 1 0
BITMAP
84
82
82
82
82
82
82
44
38
ENDCHAR
STARTCHAR phi
ENCODING 966
SWIDTH 770 0
DWIDTH 12 0
BBX 9 15 1 -3
BITMAP
0800
0800
0800
0800
3E00
4900
8880
8880
8880
8880
4900
3E00
0800
0800
0800
ENDCHAR
STARTCHAR chi
ENCODING 967
SWIDTH 548 0
DWIDTH 9 0
BBX 8 12 0 -3
BITMAP
81
42
24
24
18
18
18
18
24
42
42
81
ENDCHAR
STARTCHAR psi
ENCODING 968
SWIDTH 789 0
DWIDTH 13 0
BBX 10 14 1 -3
BITMAP
0800
0800
8880
8840
8840
8840
8840
8840
8880
4980
3E00
0800
0800
0800
ENDCHAR
STARTCHAR omega
ENCODING 969
SWIDTH 897 0
DWIDTH 14 0
BBX 11 9 1 0
BITMAP
4040
8420
8420
8420
8420
8420
8420
4A40
3180
ENDCHAR
STARTCHAR iotadieresis
ENCODING 970
SWIDTH 367 0
DWIDTH 6 0
BBX 6 11 0 0
BITMAP
90
00
20
20
20
20
20
20
20
20
1C
ENDCHAR
STARTCHAR upsilondieresis
ENCODING 971
SWIDTH 602 0
DWIDTH 10 0
BBX 7 11 1 0
BITMAP
24
00
84
82
82
82
82
82
82
44
38
ENDCHAR
STARTCHAR omicrontonos
ENCODING 972
SWIDTH 614 0
DWIDTH 10 0
BBX 7 13 1 0
BITMAP
10
10
10
00
38
44
82
82
82
82
82
44
38
ENDCHAR
STARTCHAR upsilontonos
ENCODING 973
SWIDTH 602 0
DWIDTH 10 0
BBX 7 13 1 0
BITMAP
10
10
10
00
84
82
82
82
82
82
82
44
38
ENDCHAR
STARTCHAR omegatonos
ENCODING 974
SWIDTH 897 0
DWIDTH 14 0
BBX 11 13 1 0
BITMAP
0400
0400
0400
0000
4040
8420
8420
8420
8420
8420
8420
4A40
3180
ENDCHAR
STARTCHAR uni0401
ENCODING 1025
SWIDTH 541 0
DWIDTH 9 0
BBX 6 14 2 0
BITMAP
48
00
FC
80
80
80
80
F8
80
80
80
80
80
FC
ENDCHAR
STARTCHAR uni0402
ENCODING 1026
SWIDTH 794 0
DWIDTH 13 0
BBX 12 12 0 0
BITMAP
FF80
0800
0800
0800
0BC0
0C20
0810
0810
0810
0810
0820
09C0
ENDCHAR
STARTCHAR uni0403
ENCODING 1027
SWIDTH 509 0
DWIDTH 8 0
BBX 6 16 2 0
BITMAP
08
10
20
00
FC
80
80
80
80
80
80
80
80
80
80
80
ENDCHAR
STARTCHAR uni0404
ENCODING 1028
SWIDTH 602 0
DWIDTH 10 0
BBX 8 12 1 0
BITMAP
1E
61
40
80
80
FC
80
80
80
40
61
1E
ENDCHAR
STARTCHAR uni0405
ENCODING 1029
SWIDTH 539 0
DWIDTH 9 0
BBX 7 12 1 0
BITMAP
38
44
80
80
40
30
0C
02
02
02
84
78
ENDCHAR
STARTCHAR uni0406
ENCODING 1030
SWIDTH 288 0
DWIDTH 5 0
BBX 1 12 2 0
BITMAP
80
80
80
80
80
80
80
80
80
80
80
80
ENDCHAR
STARTCHAR uni0407
ENCODING 1031
SWIDTH 288 0
DWIDTH 5 0
BBX 4 14 0 0
BITMAP
90
00
20
20
20
20
20
20
20
20
20
20
20
20
ENDCHAR
STARTCHAR uni0408
ENCODING 1032
SWIDTH 311 0
DWIDTH 5 0
BBX 4 14 -1 -2
BITMAP
10
10
10
10
10
10
10
10
10
10
10
10
10
E0
ENDCHAR
STARTCHAR uni0409
ENCODING 1033
SWIDTH 981 0
DWIDTH 16 0
BBX 15 12 0 0
BITMAP
1F80
1080
1080
1080
1080
10F8
1084
1082
1082
2082
2084
C0F8
ENDCHAR
STARTCHAR uni040A
ENCODING 1034
SWIDTH 967 0
DWIDTH 15 0
BBX 12 12 2 0
BITMAP
8200
8200
8200
8200
8200
FFC0
8220
8210
8210
8210
8220
83C0
ENDCHAR
STARTCHAR uni040B
ENCODING 1035
SWIDTH 762 0
DWIDTH 12 0
BBX 11 12 0 0
BITMAP
FF00
1000
1000
1000
1780
1840
1020
1020
1020
1020
1020
1020
ENDCHAR
STARTCHAR uni040C
ENCODING 1036
SWIDTH 592 0
DWIDTH 9 0
BBX 7 16 2 0
BITMAP
0C
08
10
00
82
84
88
88
90
E0
90
90
88
84
84
82
ENDCHAR
STARTCHAR uni040E
ENCODING 1038
SWIDTH 641 0
DWIDTH 10 0
BBX 9 15 1 0
BITMAP
1200
1E00
0000
8080
4100
4100
2200
2200
1400
1400
0800
0800
1000
1000
6000
ENDCHAR
STARTCHAR uni040F
ENCODING 1039
SWIDTH 735 0
DWIDTH 12 0
BBX 8 14 2 -2
BITMAP
81
81
81
81
81
81
81
81
81
81
81
FF
10
10
ENDCHAR
STARTCHAR uni0410
ENCODING 1040
SWIDTH 689 0
DWIDTH 11 0
BBX 11 12 0 0
BITMAP
0400
0A00
0A00
1100
1100
1100
2080
2080
7FC0
4040
4040
8020
ENDCHAR
STARTCHAR uni0411
ENCODING 1041
SWIDTH 581 0
DWIDTH 9 0
BBX 6 12 2 0
BITMAP
F8
80
80
80
80
F0
88
84
84
84
88
F0
ENDCHAR
STARTCHAR uni0412
ENCODING 1042
SWIDTH 575 0
DWIDTH 9 0
BBX 6 12 2 0
BITMAP
F8
84
84
84
88
F0
88
84
84
84
84
F8
ENDCHAR
STARTCHAR uni0413
ENCODING 1043
SWIDTH 509 0
DWIDTH 8 0
BBX 6 12 2 0
BITMAP
FC
80
80
80
80
80
80
80
80
80
80
80
ENDCHAR
STARTCHAR uni0414
ENCODING 1044
SWIDTH 762 0
DWIDTH 12 0
BBX 10 14 1 -2
BITMAP
1F80
1080
1080
1080
1080
1080
1080
2080
2080
2080
4080
FFC0
8040
8040
ENDCHAR
STARTCHAR uni0415
ENCODING 1045
SWIDTH 541 0
DWIDTH 9 0
BBX 6 12 2 0
BITMAP
FC
80
80
80
80
F8
80
80
80
80
80
FC
ENDCHAR
STARTCHAR uni0416
ENCODING 1046
SWIDTH 816 0
DWIDTH 13 0
BBX 11 12 1 0
BITMAP
8420
4440
4440
2480
1500
1F00
2480
2480
4440
4440
4440
8420
ENDCHAR
STARTCHAR uni0417
ENCODING 1047
SWIDTH 540 0
DWIDTH 9 0
BBX 7 12 1 0
BITMAP
78
84
02
02
04
38
04
02
02
02
84
78
ENDCHAR
STARTCHAR uni0418
ENCODING 1048
SWIDTH 740 0
DWIDTH 12 0
BBX 8 12 2 0
BITMAP
81
83
85
85
89
89
91
91
A1
C1
C1
81
ENDCHAR
STARTCHAR uni0419
ENCODING 1049
SWIDTH 740 0
DWIDTH 12 0
BBX 8 15 2 0
BITMAP
22
1C
00
81
83
85
85
89
89
91
91
A1
C1
C1
81
ENDCHAR
STARTCHAR uni041A
ENCODING 1050
SWIDTH 592 0
DWIDTH 9 0
BBX 7 12 2 0
BITMAP
82
84
88
88
90
E0
90
90
88
84
84
82
ENDCHAR
STARTCHAR uni041B
ENCODING 1051
SWIDTH 701 0
DWIDTH 11 0
BBX 9 12 0 0
BITMAP
1F80
1080
1080
1080
1080
1080
1080
1080
1080
2080
2080
C080
ENDCHAR
STARTCHAR uni041C
ENCODING 1052
SWIDTH 860 0
DWIDTH 14 0
BBX 11 12 1 0
BITMAP
8020
C060
C060
A0A0
A0A0
A0A0
9120
9120
8A20
8A20
8420
8020
ENDCHAR
STARTCHAR uni041D
ENCODING 1053
SWIDTH 734 0
DWIDTH 12 0
BBX 8 12 2 0
BITMAP
81
81
81
81
81
FF
81
81
81
81
81
81
ENDCHAR
STARTCHAR uni041E
ENCODING 1054
SWIDTH 776 0
DWIDTH 12 0
BBX 10 12 1 0
BITMAP
1E00
6180
4080
8040
8040
8040
8040
8040
8040
4080
6180
1E00
ENDCHAR
STARTCHAR uni041F
ENCODING 1055
SWIDTH 734 0
DWIDTH 12 0
BBX 8 12 2 0
BITMAP
FF
81
81
81
81
81
81
81
81
81
81
81
ENDCHAR
STARTCHAR uni0420
ENCODING 1056
SWIDTH 553 0
DWIDTH 9 0
BBX 6 12 2 0
BITMAP
F8
84
84
84
84
88
F0
80
80
80
80
80
ENDCHAR
STARTCHAR uni0421
ENCODING 1057
SWIDTH 691 0
DWIDTH 11 0
BBX 9 12 1 0
BITMAP
1F00
6080
4000
8000
8000
8000
8000
8000
8000
4000
6080
1F00
ENDCHAR
STARTCHAR uni0422
ENCODING 1058
SWIDTH 631 0
DWIDTH 10 0
BBX 10 12 0 0
BITMAP
FFC0
0800
0800
0800
0800
0800
0800
0800
0800
0800
0800
0800
ENDCHAR
STARTCHAR uni0423
ENCODING 1059
SWIDTH 641 0
DWIDTH 10 0
BBX 9 12 1 0
BITMAP
8080
4100
4100
2200
2200
1400
1400
0800
0800
1000
1000
6000
ENDCHAR
STARTCHAR uni0424
ENCODING 1060
SWIDTH 692 0
DWIDTH 11 0
BBX 9 12 1 0
BITMAP
0800
0800
3E00
4900
8880
8880
8880
8880
4900
3E00
0800
0800
ENDCHAR
STARTCHAR uni0425
ENCODING 1061
SWIDTH 625 0
DWIDTH 10 0
BBX 10 12 0 0
BITMAP
8040
4080
2100
1200
1200
0C00
0C00
1200
1200
2100
4080
8040
ENDCHAR
STARTCHAR uni0426
ENCODING 1062
SWIDTH 768 0
DWIDTH 12 0
BBX 9 14 2 -2
BITMAP
8100
8100
8100
8100
8100
8100
8100
8100
8100
8100
8100
FF80
0080
0080
ENDCHAR
STARTCHAR uni0427
ENCODING 1063
SWIDTH 629 0
DWIDTH 10 0
BBX 7 12 1 0
BITMAP
82
82
82
82
82
82
86
7A
02
02
02
02
ENDCHAR
STARTCHAR uni0428
ENCODING 1064
SWIDTH 951 0
DWIDTH 15 0
BBX 13 12 1 0
BITMAP
8208
8208
8208
8208
8208
8208
8208
8208
8208
8208
8208
FFF8
ENDCHAR
STARTCHAR uni0429
ENCODING 1065
SWIDTH 984 0
DWIDTH 16 0
BBX 14 14 1 -2
BITMAP
8208
8208
8208
8208
8208
8208
8208
8208
8208
8208
8208
FFFC
0004
0004
ENDCHAR
STARTCHAR uni042A
ENCODING 1066
SWIDTH 677 0
DWIDTH 11 0
BBX 10 12 0 0
BITMAP
F000
1000
1000
1000
1000
1F00
1080
1040
1040
1040
1080
1F00
ENDCHAR
STARTCHAR uni042B
ENCODING 1067
SWIDTH 804 0
DWIDTH 13 0
BBX 9 12 2 0
BITMAP
8080
8080
8080
8080
8080
F880
8480
8280
8280
8280
8480
F880
ENDCHAR
STARTCHAR uni042C
ENCODING 1068
SWIDTH 569 0
DWIDTH 9 0
BBX 6 12 2 0
BITMAP
80
80
80
80
80
F0
88
84
84
84
88
F0
ENDCHAR
STARTCHAR uni042D
ENCODING 1069
SWIDTH 602 0
DWIDTH 10 0
BBX 8 12 1 0
BITMAP
78
86
02
01
01
3F
01
01
01
02
86
78
ENDCHAR
STARTCHAR uni042E
ENCODING 1070
SWIDTH 965 0
DWIDTH 15 0
BBX 12 12 2 0
BITMAP
8380
8C60
8820
9010
9010
F010
9010
9010
9010
8820
8C60
8380
ENDCHAR
STARTCHAR uni042F
ENCODING 1071
SWIDTH 620 0
DWIDTH 10 0
BBX 8 12 0 0
BITMAP
1F
21
21
21
21
11
0F
09
11
21
41
81
ENDCHAR
STARTCHAR uni0430
ENCODING 1072
SWIDTH 551 0
DWIDTH 9 0
BBX 8 9 1 0
BITMAP
78
84
04
04
3C
44
84
8C
77
ENDCHAR
STARTCHAR uni0431
ENCODING 1073
SWIDTH 596 0
DWIDTH 10 0
BBX 7 12 1 0
BITMAP
3C
40
80
B8
C4
82
82
82
82
82
44
38
ENDCHAR
STARTCHAR uni0432
ENCODING 1074
SWIDTH 524 0
DWIDTH 8 0
BBX 5 9 1 0
BITMAP
F0
88
88
88
F0
98
88
88
F0
ENDCHAR
STARTCHAR uni0433
ENCODING 1075
SWIDTH 494 0
DWIDTH 8 0
BBX 6 9 1 0
BITMAP
FC
80
80
80
80
80
80
80
80
ENDCHAR
STARTCHAR uni0434
ENCODING 1076
SWIDTH 671 0
DWIDTH 11 0
BBX 9 11 1 -2
BITMAP
1F00
1100
1100
1100
1100
2100
2100
4100
FF80
8080
8080
ENDCHAR
STARTCHAR uni0435
ENCODING 1077
SWIDTH 557 0
DWIDTH 9 0
BBX 6 9 1 0
BITMAP
30
48
84
84
FC
80
80
44
38
ENDCHAR
STARTCHAR uni0436
ENCODING 1078
SWIDTH 727 0
DWIDTH 12 0
BBX 11 9 0 0
BITMAP
4440
2480
2480
1500
0E00
1500
2480
4440
8420
ENDCHAR
STARTCHAR uni0437
ENCODING 1079
SWIDTH 480 0
DWIDTH 8 0
BBX 5 9 1 0
BITMAP
F0
08
08
08
70
18
08
08
F0
ENDCHAR
STARTCHAR uni0438
ENCODING 1080
SWIDTH 626 0
DWIDTH 10 0
BBX 7 9 1 0
BITMAP
82
86
8A
8A
92
A2
A2
C2
82
ENDCHAR
STARTCHAR uni0439
ENCODING 1081
SWIDTH 626 0
DWIDTH 10 0
BBX 7 12 1 0
BITMAP
24
3C
00
82
86
8A
8A
92
A2
A2
C2
82
ENDCHAR
STARTCHAR uni043A
ENCODING 1082
SWIDTH 537 0
DWIDTH 9 0
BBX 7 9 1 0
BITMAP
86
88
90
90
E0
90
88
84
82
ENDCHAR
STARTCHAR uni043B
ENCODING 1083
SWIDTH 587 0
DWIDTH 9 0
BBX 7 9 0 0
BITMAP
3E
22
22
22
22
22
42
42
82
ENDCHAR
STARTCHAR uni043C
ENCODING 1084
SWIDTH 726 0
DWIDTH 12 0
BBX 9 9 1 0
BITMAP
8080
C180
C180
A280
A280
9480
9480
8880
8080
ENDCHAR
STARTCHAR uni043D
ENCODING 1085
SWIDTH 626 0
DWIDTH 10 0
BBX 7 9 1 0
BITMAP
82
82
82
82
FE
82
82
82
82
ENDCHAR
STARTCHAR uni043E
ENCODING 1086
SWIDTH 613 0
DWIDTH 10 0
BBX 7 9 1 0
BITMAP
38
44
82
82
82
82
82
44
38
ENDCHAR
STARTCHAR uni043F
ENCODING 1087
SWIDTH 626 0
DWIDTH 10 0
BBX 7 9 1 0
BITMAP
FE
82
82
82
82
82
82
82
82
ENDCHAR
STARTCHAR uni0440
ENCODING 1088
SWIDTH 628 0
DWIDTH 10 0
BBX 7 12 1 -3
BITMAP
B8
C4
82
82
82
82
82
C4
B8
80
80
80
ENDCHAR
STARTCHAR uni0441
ENCODING 1089
SWIDTH 512 0
DWIDTH 8 0
BBX 5 9 1 0
BITMAP
30
48
80
80
80
80
80
48
30
ENDCHAR
STARTCHAR uni0442
ENCODING 1090
SWIDTH 494 0
DWIDTH 8 0
BBX 7 9 0 0
BITMAP
FE
10
10
10
10
10
10
10
10
ENDCHAR
STARTCHAR uni0443
ENCODING 1091
SWIDTH 525 0
DWIDTH 8 0
BBX 8 12 0 -3
BITMAP
81
41
42
22
22
14
14
08
08
08
10
60
ENDCHAR
STARTCHAR uni0444
ENCODING 1092
SWIDTH 807 0
DWIDTH 13 0
BBX 11 15 1 -3
BITMAP
0400
0400
0400
3F80
4440
8420
8420
8420
8420
8420
4440
3F80
0400
0400
0400
ENDCHAR
STARTCHAR uni0445
ENCODING 1093
SWIDTH 612 0
DWIDTH 10 0
BBX 8 9 1 0
BITMAP
81
42
24
18
10
18
24
42
81
ENDCHAR
STARTCHAR uni0446
ENCODING 1094
SWIDTH 668 0
DWIDTH 11 0
BBX 9 11 1 -2
BITMAP
8100
8100
8100
8100
8100
8100
8100
8100
FF80
0080
0080
ENDCHAR
STARTCHAR uni0447
ENCODING 1095
SWIDTH 523 0
DWIDTH 8 0
BBX 6 9 1 0
BITMAP
84
84
84
84
8C
74
04
04
04
ENDCHAR
STARTCHAR uni0448
ENCODING 1096
SWIDTH 843 0
DWIDTH 14 0
BBX 11 9 1 0
BITMAP
8420
8420
8420
8420
8420
8420
8420
8420
FFE0
ENDCHAR
STARTCHAR uni0449
ENCODING 1097
SWIDTH 885 0
DWIDTH 14 0
BBX 12 11 1 -2
BITMAP
8420
8420
8420
8420
8420
8420
8420
8420
FFF0
0010
0010
ENDCHAR
STARTCHAR uni044A
ENCODING 1098
SWIDTH 560 0
DWIDTH 9 0
BBX 8 9 0 0
BITMAP
E0
20
20
20
3E
21
21
21
3E
ENDCHAR
STARTCHAR uni044B
ENCODING 1099
SWIDTH 723 0
DWIDTH 12 0
BBX 8 9 2 0
BITMAP
81
81
81
81
F9
85
85
85
F9
ENDCHAR
STARTCHAR uni044C
ENCODING 1100
SWIDTH 506 0
DWIDTH 8 0
BBX 6 9 1 0
BITMAP
80
80
80
80
F8
84
84
84
F8
ENDCHAR
STARTCHAR uni044D
ENCODING 1101
SWIDTH 508 0
DWIDTH 8 0
BBX 5 9 1 0
BITMAP
60
90
08
08
78
08
08
90
60
ENDCHAR
STARTCHAR uni044E
ENCODING 1102
SWIDTH 813 0
DWIDTH 13 0
BBX 10 9 1 0
BITMAP
8700
8880
9040
9040
F040
9040
9040
8880
8700
ENDCHAR
STARTCHAR uni044F
ENCODING 1103
SWIDTH 510 0
DWIDTH 8 0
BBX 6 9 0 0
BITMAP
3C
44
44
44
3C
24
44
44
84
ENDCHAR
STARTCHAR uni0451
ENCODING 1105
SWIDTH 557 0
DWIDTH 9 0
BBX 6 11 1 0
BITMAP
24
00
30
48
84
84
FC
80
80
44
38
ENDCHAR
STARTCHAR uni0452
ENCODING 1106
SWIDTH 620 0
DWIDTH 10 0
BBX 8 15 0 -3
BITMAP
40
40
F8
40
40
4E
51
61
41
41
41
41
01
01
0E
ENDCHAR
STARTCHAR uni0453
ENCODING 1107
SWIDTH 494 0
DWIDTH 8 0
BBX 6 13 1 0
BITMAP
08
10
20
00
FC
80
80
80
80
80
80
80
80
ENDCHAR
STARTCHAR uni0454
ENCODING 1108
SWIDTH 508 0
DWIDTH 8 0
BBX 5 9 1 0
BITMAP
30
48
80
80
E0
80
80
48
30
ENDCHAR
STARTCHAR uni0455
ENCODING 1109
SWIDTH 509 0
DWIDTH 8 0
BBX 6 9 1 0
BITMAP
78
84
80
60
18
04
04
84
78
ENDCHAR
STARTCHAR uni0456
ENCODING 1110
SWIDTH 289 0
DWIDTH 5 0
BBX 1 12 2 0
BITMAP
80
00
00
80
80
80
80
80
80
80
80
80
ENDCHAR
STARTCHAR uni0457
ENCODING 1111
SWIDTH 289 0
DWIDTH 5 0
BBX 4 11 0 0
BITMAP
90
00
20
20
20
20
20
20
20
20
20
ENDCHAR
STARTCHAR uni0458
ENCODING 1112
SWIDTH 304 0
DWIDTH 5 0
BBX 4 15 -1 -3
BITMAP
10
00
00
10
10
10
10
10
10
10
10
10
10
10
E0
ENDCHAR
STARTCHAR uni0459
ENCODING 1113
SWIDTH 801 0
DWIDTH 13 0
BBX 12 9 0 0
BITMAP
3E00
2200
2200
2200
23E0
2210
4210
4210
83E0
ENDCHAR
STARTCHAR uni045A
ENCODING 1114
SWIDTH 840 0
DWIDTH 13 0
BBX 11 9 1 0
BITMAP
8400
8400
8400
8400
FFC0
8420
8420
8420
87C0
ENDCHAR
STARTCHAR uni045B
ENCODING 1115
SWIDTH 620 0
DWIDTH 10 0
BBX 8 12 0 0
BITMAP
40
40
FC
40
40
4E
51
61
41
41
41
41
ENDCHAR
STARTCHAR uni045C
ENCODING 1116
SWIDTH 537 0
DWIDTH 9 0
BBX 7 13 1 0
BITMAP
04
08
08
00
86
88
90
90
E0
90
88
84
82
ENDCHAR
STARTCHAR uni045E
ENCODING 1118
SWIDTH 525 0
DWIDTH 8 0
BBX 8 15 0 -3
BITMAP
22
1C
00
81
41
42
22
22
14
14
08
08
08
10
60
ENDCHAR
STARTCHAR uni045F
ENCODING 1119
SWIDTH 626 0
DWIDTH 10 0
BBX 7 11 1 -2
BITMAP
82
82
82
82
82
82
82
82
FE
10
10
ENDCHAR
STARTCHAR uni048A
ENCODING 1162
SWIDTH 613 0
DWIDTH 10 0
BBX 3 3 3 10
BITMAP
20
40
80
ENDCHAR
STARTCHAR uni048B
ENCODING 1163
SWIDTH 613 0
DWIDTH 10 0
BBX 5 2 2 10
BITMAP
88
70
ENDCHAR
STARTCHAR uni0490
ENCODING 1168
SWIDTH 509 0
DWIDTH 8 0
BBX 6 14 2 0
BITMAP
04
04
FC
80
80
80
80
80
80
80
80
80
80
80
ENDCHAR
STARTCHAR uni0491
ENCODING 1169
SWIDTH 494 0
DWIDTH 8 0
BBX 6 11 1 0
BITMAP
04
04
FC
80
80
80
80
80
80
80
80
ENDCHAR
ENDFONT
